<?xml version="1.0" standalone="no"?>
<!DOCTYPE svg PUBLIC "-//W3C//DTD SVG 1.1//EN" "http://www.w3.org/Graphics/SVG/1.1/DTD/svg11.dtd" >
<!--
2013-9-30: Created.
-->
<svg>
<metadata>
Created by iconfont
</metadata>
<defs>

<font id="iconfont" horiz-adv-x="1024" >
  <font-face
    font-family="iconfont"
    font-weight="500"
    font-stretch="normal"
    units-per-em="1024"
    ascent="896"
    descent="-128"
  />
    <missing-glyph />
    
    <glyph glyph-name="x" unicode="x" horiz-adv-x="1001"
d="M281 543q-27 -1 -53 -1h-83q-18 0 -36.5 -6t-32.5 -18.5t-23 -32t-9 -45.5v-76h912v41q0 16 -0.5 30t-0.5 18q0 13 -5 29t-17 29.5t-31.5 22.5t-49.5 9h-133v-97h-438v97zM955 310v-52q0 -23 0.5 -52t0.5 -58t-10.5 -47.5t-26 -30t-33 -16t-31.5 -4.5q-14 -1 -29.5 -0.5
t-29.5 0.5h-32l-45 128h-439l-44 -128h-29h-34q-20 0 -45 1q-25 0 -41 9.5t-25.5 23t-13.5 29.5t-4 30v167h911zM163 247q-12 0 -21 -8.5t-9 -21.5t9 -21.5t21 -8.5q13 0 22 8.5t9 21.5t-9 21.5t-22 8.5zM316 123q-8 -26 -14 -48q-5 -19 -10.5 -37t-7.5 -25t-3 -15t1 -14.5
t9.5 -10.5t21.5 -4h37h67h81h80h64h36q23 0 34 12t2 38q-5 13 -9.5 30.5t-9.5 34.5q-5 19 -11 39h-368zM336 498v228q0 11 2.5 23t10 21.5t20.5 15.5t34 6h188q31 0 51.5 -14.5t20.5 -52.5v-227h-327z" />
    

    
    <glyph glyph-name="bbgjiushui" unicode="&#59028;" d="M302.147 264.101h-60c-16.572 0-30-13.428-30-30 0-16.566 13.428-30 30-30h60c16.566 0 30 13.434 30 30 0 16.571-13.434 30-30 30zM302.147 144.101h-60c-16.572 0-30-13.434-30-30s13.428-30 30-30h60c16.566 0 30 13.434 30 30s-13.434 30-30 30zM332.147 804.099c0 33.138-26.862 60-60 60s-60-26.862-60-60v-60h120v60zM392.147 564.1h-60v120h-120v-120h-60c-33.138 0-60-26.862-60-60v-539.999c0-33.138 26.862-60 60-60h239.999c33.138 0 60 26.862 60 60v539.999c0 33.138-26.861 60-59.999 60zM392.147 24.101c0-33.138-26.862-60-60-60h-120c-33.138 0-60 26.862-60 60v299.999c0 33.138 26.862 60 60 60h120c33.138 0 60-26.862 60-60v-299.999zM932.145 354.1v240c0 10.278-1.596 20.118-3.024 30h-413.95c-1.428-9.882-3.024-19.722-3.024-30v-239.999c0-105.702 78.359-192.306 180-206.976v-183.023h-90c-16.572 0-30-13.434-30-30s13.428-30 30-30h239.999c16.566 0 30 13.434 30 30s-13.434 30-30 30h-90v183.023c101.639 14.67 180 101.274 180 206.976zM680.911 245.591c-4.279 0-8.35 0.881-12.045 2.464-56.499 21.438-96.72 75.769-96.72 139.796 0 8.176 0.679 16.189 1.943 24.007l0.242-0.038c2.078 14.539 14.578 25.719 29.691 25.719 16.566 0 30-13.434 30-30 0-1.765-0.161-3.492-0.454-5.175l0.139-0.023c-0.97-4.688-1.559-9.504-1.559-14.491 0-12.432 3.282-23.766 7.89-34.428 0.102-0.252 0.265-0.468 0.372-0.726 4.17-9.402 9.876-17.694 16.89-25.050 1.494-1.609 2.946-3.084 4.554-4.578 6.336-5.76 13.38-10.452 21.174-14.281 2.172-1.081 4.038-2.471 6.306-3.378 0.889-0.352 1.621-0.963 2.485-1.351 11.423-4.358 19.537-15.351 19.537-28.231-0.001-16.698-13.633-30.238-30.443-30.238z"  horiz-adv-x="1024" />

    
    <glyph glyph-name="llhomesearch" unicode="&#58883;" d="M974.065-6.158l-170.241 167.141c54.221 71.799 86.77 160.885 86.77 257.802 0 236.725-191.861 428.635-428.634 428.635-236.748 0-428.635-191.91-428.635-428.635 0-236.773 191.886-428.66 428.635-428.66 109.079 0 208.359 41.094 284.001 108.194l170.486-167.363c16.745-16.447 43.215-15.758 59.146 1.577 15.881 17.333 15.216 44.814-1.529 61.31zM461.986 65.743c-194.963 0-352.992 158.055-352.992 353.019 0 194.939 158.029 352.993 352.992 352.993 194.941 0 352.994-158.054 352.994-352.993-0.001-194.964-158.054-353.019-352.994-353.019z"  horiz-adv-x="1024" />

    
    <glyph glyph-name="gou" unicode="&#58982;" d="M861.609 707.734l-501.187-501.187-198.032 198.031c-29.634 29.632-77.678 29.632-107.313 0-29.63-29.631-29.63-77.677 0-107.31l237.241-237.242c15.806-15.803 44.588-22.999 68.379-21.872 23.636-1.122 52.031 6.076 67.829 21.876l540.395 540.395c29.634 29.634 29.634 77.678 0 107.311-29.632 29.634-77.675 29.634-107.31 0z"  horiz-adv-x="1024" />

    
    <glyph glyph-name="xiala" unicode="&#58933;" d="M1014.193 650.256c-13.972 13.936-36.557 13.936-50.49 0l-453.332-453.332-451.134 451.134c-13.897 13.859-36.407 13.859-50.306 0-13.86-13.897-13.86-36.407 0-50.307l476.299-476.261c6.98-6.98 16.148-10.409 25.311-10.358 9.201-0.052 18.412 3.395 25.43 10.414l478.222 478.223c13.934 13.932 13.934 36.517-0.001 50.489z"  horiz-adv-x="1024" />

    
    <glyph glyph-name="fenlei" unicode="&#58991;" d="M85.836 763.135c33.433 4.364 62.693-20.881 62.921-54.236 0.228-33.676-27.486-56.213-55.328-56.41-31.998-0.228-54.65 24.794-56.404 52.067-1.963 30.462 18.619 54.645 48.812 58.579v0zM233.365 736.017h751.763v-55.323h-752.845v52.067c-0.093 1.542-0.181 3.075 1.082 3.257v0zM84.752 427.936c13.639 1.994 30.157-1.802 39.055-7.594 12.025-7.831 24.913-27.724 24.949-46.642 0.067-36.119-29.431-56.234-55.328-56.41-32.003-0.218-54.691 25.394-56.404 52.067-2.045 31.757 19.777 54.501 47.729 58.579v0zM233.365 400.818h751.763v-55.323h-752.845v52.067c-0.093 1.538-0.181 3.075 1.082 3.257v0zM86.922 120.942c33.904 3.639 61.617-22.336 61.835-54.241 0.239-35.466-29.141-57.595-58.585-56.404-31.663 1.274-53.365 27.641-53.154 56.404 0.238 31.161 21.295 51.168 49.904 54.241v0zM233.365 93.824h751.763v-55.328h-752.845v52.073c-0.093 1.538-0.181 3.075 1.082 3.257v0zM233.365 93.824z"  horiz-adv-x="1024" />

    
    <glyph glyph-name="iconfont19" unicode="&#59117;" d="M297.504-85.344c13.248 0 24 10.752 24 24l0 512c0 13.248-10.752 24-24 24-13.264 0-24-10.752-24-24l0-512C273.504-74.592 284.24-85.344 297.504-85.344zM512-85.344c13.248 0 24 10.752 24 24l0 512c0 13.248-10.752 24-24 24-13.28 0-24-10.752-24-24l0-512C488-74.592 498.72-85.344 512-85.344zM726.48-85.344c13.264 0 24 10.752 24 24l0 512c0 13.248-10.736 24-24 24s-24-10.752-24-24l0-512C702.48-74.592 713.248-85.344 726.48-85.344zM1000 668.656 816 668.656 816 780c0 17.68-14.336 32-32 32L240 812c-17.664 0-32-14.32-32-32l0-111.344L24 668.656c-13.28 0-24-10.752-24-24s10.72-24 24-24L80 620.656 80-180c0-17.68 14.336-32 32-32l800 0c17.664 0 32 14.32 32 32L944 620.656l56 0c13.248 0 24 10.752 24 24S1013.248 668.656 1000 668.656zM256 755.664c0 17.68 14.336 16 32 16l448 0c17.664 0 32 1.68 32-16L768 676.32 256 676.32 256 755.664zM896-135.056C896-151.024 883.168-164 867.344-164L156.624-164c-15.808 0-28.656 12.976-28.656 28.944L127.968 620.656l768 0 0-755.712L896-135.056z"  horiz-adv-x="1024" />

    
    <glyph glyph-name="iconfontwancheng" unicode="&#58886;" d="M506.816 889.984l5.056-476.928 192.256 193.536c0 0 22.848 25.344 39.232-1.216l50.624-49.344c0 0 19.008-16.448 0-31.616l-139.392-140.48 363.328-18.944c0-0 32.96 507.328-511.104 524.992zM1017.92 364.992l-363.328 18.944-142.72-141.696v-364.352c0 0 473.216-12.608 506.048 487.104zM511.872-122.112v364.352l-80.96-81.792c0 0-16.896-21.952-40.512 0l-213.376 212.544-171.2 16.896c0 0-33.792-473.28 506.048-512zM5.824 389.888l171.2-16.896c0 0-20.224 14.144 0 30.976l62.4 60.928c0 0 9.728 11.2 19.2 0l151.168-151.168 102.080 99.328-5.056 476.928c0 0-458.816 10.24-500.992-500.096zM494.912 889.856v-493.312l36.096 35.776 17.984 455.296z"  horiz-adv-x="1024" />

    
    <glyph glyph-name="212102" unicode="&#58889;" d="M512 20.6528c-5.2736 0-10.5728 1.0752-15.488 3.2512l-409.6 180.7104c-19.4048 8.5504-28.1856 31.232-19.6352 50.6368 8.5504 19.3792 31.2576 28.1856 50.6368 19.6352L512 101.0368l394.112 173.8752c19.4048 8.5504 42.0864-0.256 50.6368-19.6352 8.5504-19.4048-0.2304-42.0864-19.6352-50.6368l-409.6-180.7104C522.5728 21.7536 517.2736 20.6528 512 20.6528zM512 321.8368c-5.2736 0-10.5728 1.0752-15.488 3.2512l-409.6 180.7104c-19.4048 8.5504-28.1856 31.232-19.6352 50.6368s31.2576 28.1856 50.6368 19.6352L512 402.2208l394.112 173.8752c19.4048 8.5504 42.0864-0.2304 50.6368-19.6352 8.5504-19.4048-0.2304-42.0864-19.6352-50.6368l-409.6-180.7104C522.5728 322.912 517.2736 321.8368 512 321.8368z"  horiz-adv-x="1024" />

    
    <glyph glyph-name="gouwuche" unicode="&#59174;" d="M995.107 662.25c-6.928 9.035-17.679 14.321-29.036 14.321l-767 0-32.214 153.787c-3.535 16.927-18.463 29.071-35.785 29.071h-94.501c-20.213 0-36.571-16.357-36.571-36.571s16.357-36.571 36.571-36.571h64.786l139.429-665.787c3.536-16.929 18.465-29.071 35.785-29.071l550.857 0c20.215 0 36.571 16.357 36.571 36.571s-16.357 36.571-36.571 36.571h-521.143l-22.965 109.714 594.394-0c16.536 0 31.036 11.107 35.321 27.107l88.357 329.143c2.966 10.964 0.609 22.715-6.285 31.715zM849.679 347.429h-581.678l-53.606 256h704l-68.716-256zM347.429 54.857c-50.428 0-91.429-41-91.429-91.429s41-91.429 91.429-91.429 91.429 41 91.429 91.429-41 91.429-91.429 91.429zM347.429-73.143c-20.178 0-36.571 16.393-36.571 36.571s16.393 36.571 36.571 36.571 36.571-16.393 36.571-36.571-16.393-36.571-36.571-36.571zM749.714 54.857c-50.428 0-91.429-41-91.429-91.429s41-91.429 91.429-91.429 91.429 41 91.429 91.429-41 91.429-91.429 91.429zM749.714-73.143c-20.178 0-36.571 16.393-36.571 36.571s16.393 36.571 36.571 36.571 36.571-16.393 36.571-36.571-16.393-36.571-36.571-36.571z"  horiz-adv-x="1024" />

    
    <glyph glyph-name="shouji" unicode="&#58918;" d="M787.2-212 236.8-212C179.2-212 128-160.8 128-103.2L128 703.2C128 760.8 179.2 812 236.8 812l550.4 0C844.8 812 896 760.8 896 703.2l0-806.4C896-160.8 844.8-212 787.2-212zM236.8 767.2c-32 0-64-25.6-64-64l0-806.4c0-32 25.6-64 64-64l550.4 0c32 0 64 25.6 64 64L851.2 703.2c0 32-25.6 64-64 64L236.8 767.2zM512-64.8c-57.6 0-108.8 51.2-108.8 108.8s51.2 108.8 108.8 108.8c57.6 0 108.8-51.2 108.8-108.8S569.6-64.8 512-64.8zM512 108c-32 0-64-25.6-64-64s25.6-64 64-64c32 0 64 25.6 64 64S544 108 512 108zM384 620l256 0 0-44.8-256 0 0 44.8Z"  horiz-adv-x="1024" />

    
    <glyph glyph-name="jinkoulingshi" unicode="&#58985;" d="M811.152 505.569c60.42-1.711 155.267-4.332 182.355-4.715 55.84 3.18 22.507 63.116-2.101 71.44-99.928 25.482-103.583 74.739-106.693 88.028-3.129 13.296-7.294 51.534-26.087 70.325-18.797 18.796-57.034 22.961-70.33 26.088-13.285 3.108-62.539 6.766-88.029 106.693-8.319 24.608-68.256 57.945-71.434 2.099 0.387-27.090 3.004-121.929 4.713-182.356 39.493-14.519 76.554-37.619 108.267-69.331 31.719-31.712 54.816-68.774 69.338-108.27zM218.837 268.465c-60.431 1.702-155.265 4.321-182.357 4.71-55.844-3.176-22.513-63.121 2.1-71.436 99.919-25.492 103.576-74.746 106.684-88.039 3.131-13.295 7.296-51.524 26.087-70.323 18.797-18.798 57.035-22.962 70.33-26.088 13.286-3.108 62.545-6.767 88.034-106.684 8.319-24.62 68.264-57.944 71.44-2.104-0.384 27.086-3.016 121.929-4.715 182.359-39.502 14.51-76.564 37.609-108.276 69.321-31.712 31.719-54.811 68.777-69.326 108.283zM710.339 582.363c-58.845 58.843-137.89 85.128-214.824 78.967l293.79-293.79c6.16 76.933-20.119 155.973-78.966 214.823zM324.501 196.522c58.386-58.386 136.666-84.695 213.028-79.094l-292.122 292.121c-5.606-76.361 20.705-154.639 79.094-213.027zM324.501 582.363c-35.576-35.573-59.202-78.53-71.016-123.932l332.93-332.919c45.395 11.81 88.351 35.439 123.925 71.011 35.167 35.17 58.661 77.572 70.614 122.413l-334.041 334.036c-44.839-11.953-87.24-35.44-122.412-70.609z"  horiz-adv-x="1024" />

    
    <glyph glyph-name="dizhi" unicode="&#58893;" d="M512.46 702.427c-90.154 0-163.493-72.018-163.493-160.512 0-88.476 73.339-160.416 163.493-160.416 90.149 0 163.449 71.94 163.449 160.416C675.909 630.414 602.609 702.427 512.46 702.427M512.46 452.571c-50.116 0-90.888 40.09-90.888 89.378 0 49.276 40.771 89.384 90.888 89.384 50.082 0 90.849-40.107 90.849-89.384C603.309 492.663 562.542 452.571 512.46 452.571M895.11 518.094c0 207.235-171.655 375.823-382.65 375.823-210.958 0-382.542-168.588-382.542-375.823 0-162.531 235.576-490.029 336.917-623.266 10.667-14.059 27.74-22.416 45.627-22.416 17.846 0 34.955 8.354 45.662 22.416C659.427 28.064 895.11 355.52 895.11 518.094M518.492-48.288l-6.032-8.021-6.037 8.021C315.12 205.907 196.191 422.95 196.191 518.094c0 171.303 141.85 310.673 316.269 310.673 174.378 0 316.234-139.37 316.234-310.673C828.729 422.914 709.873 205.907 518.492-48.288"  horiz-adv-x="1024" />

    
    <glyph glyph-name="dianhua" unicode="&#58911;" d="M754.842757-53.315893c-299.818525 0.020456-680.181663 320.846794-680.181663 681.375242 0 106.580391 86.697631 193.258589 193.257567 193.258589 106.555845 0 193.253476-86.678198 193.2995-193.238134 0-64.914553-32.182661-124.518855-85.26779-160.220888C387.203973 352.139002 478.130781 258.604115 593.357719 244.019333c35.322583 55.54695 95.799312 89.176839 162.681686 89.176839 106.60187 0 193.2995-86.699676 193.2995-193.253476 0-106.238784-86.65672-192.957893-193.186995-193.258589L754.842757-53.315893 754.842757-53.315893 754.842757-53.315893zM267.918661 755.713012c-70.386403 0-127.655708-57.247826-127.655708-127.654685 0-317.109572 346.239248-615.755996 614.579804-615.776452l1.109712 0c70.470271 0.196373 127.785601 57.490224 127.785601 127.660822 0 70.402768-57.269305 127.650594-127.697642 127.650594-49.290631 0-93.275102-27.693699-114.842374-72.305131l-9.438175-19.498197-21.613297 1.004366c-165.071913 7.620702-297.253404 143.05462-300.88528 308.292222l-0.44593 20.39108 18.068356 9.417719c42.408373 22.122639 68.738712 65.474012 68.738712 113.158885C395.616303 698.465185 338.300974 755.713012 267.918661 755.713012L267.918661 755.713012zM267.918661 755.713012"  horiz-adv-x="1024" />

    
    <glyph glyph-name="saoyisaoerweima" unicode="&#58939;" d="M956.546-68h-274.125v-60h334.125v327.927h-60zM63 199.927h-60v-327.927h334.125v60h-274.125zM682.421 885.528v-60h274.125v-267.927h60v327.927zM63 825.528h274.125v60h-334.125v-327.927h60zM221.53 399.302h284.363l-0 284.364h-284.363v-284.364zM281.53 623.666h164.363v-164.364h-164.363v164.364zM824.911 361.143h-284.364v-284.363h284.364l-0 284.363zM764.911 136.779h-164.364v164.364h164.364l-0-164.364zM763.149 681.714h60v-282.222h-60v282.222zM542.502 681.711h112.182v-112.182h-112.182v112.182zM542.502 515.205h112.182v-112.182h-112.182v112.182zM445.3 358.021h60v-282.222h-60v282.222zM224.635 358.010h112.182v-112.182h-112.182v112.182zM224.635 191.505h112.182v-112.182h-112.182v112.182z"  horiz-adv-x="1024" />

    
    <glyph glyph-name="p-password" unicode="&#59002;" d="M755.488 619.216h-52.296c0 116.559-92.729 211.375-206.706 211.375-113.977 0-206.706-94.816-206.706-211.375h-52.296c0 145.382 116.212 263.671 259.002 263.671 142.815 0 259.002-118.289 259.002-263.671v0zM833.21-100.584h-673.423c-45.008 0-81.626 38.151-81.626 85.021v519.504c0 46.904 36.617 85.046 81.626 85.046h673.422c44.996 0 81.588-38.142 81.588-85.046v-519.504c0.001-46.87-36.591-85.021-81.587-85.021v0zM159.786 536.703c-16.183 0-29.33-14.717-29.33-32.762v-519.504c0-18.056 13.146-32.727 29.33-32.727h673.422c16.158 0 29.317 14.671 29.317 32.727v519.505c0 18.044-13.159 32.762-29.317 32.762l-673.422-0.001zM237.484 619.216h52.296v-56.377h-52.296v56.377zM703.191 619.216h52.296v-56.377h-52.296v56.377zM496.486 132.967c-61.322 0-111.216 49.894-111.216 111.241 0 61.325 49.894 111.218 111.216 111.218s111.241-49.893 111.241-111.218c-0-61.347-49.919-111.241-111.241-111.241v0zM496.486 303.129c-32.499 0-58.922-26.436-58.922-58.922 0-32.511 26.424-58.969 58.922-58.969 32.511 0 58.947 26.458 58.947 58.969 0 32.486-26.435 58.922-58.947 58.922v0zM496.486 303.129z"  horiz-adv-x="1024" />

    
    <glyph glyph-name="xiazai-copy" unicode="&#58899;" d="M837.271 429.961c-25.649 0-46.403-20.778-46.403-46.403v-278.427h-556.851v278.427c0 25.627-20.753 46.403-46.403 46.403-25.648 0-46.404-20.777-46.404-46.403v-324.829c0-25.627 20.754-46.403 46.404-46.403h649.658c25.652 0 46.403 20.776 46.403 46.403v324.829c0 25.627-20.751 46.403-46.403 46.403zM558.848 429.961v284.094c0 22.497-20.754 40.735-46.404 40.735-25.649 0-46.403-18.239-46.403-40.735v-284.094h-139.213l185.617-185.616 185.618 185.616h-139.211z"  horiz-adv-x="1024" />

    
    <glyph glyph-name="turnleft" unicode="&#59181;" d="M280.554 410.479c-6.8-6.786-11.008-16.165-11.008-26.529 0-10.249 4.116-19.532 10.782-26.299v-0.075l409.93-409.925c0.195-0.206 0.393-0.402 0.599-0.603l0.064-0.065v0.005c6.751-6.569 15.965-10.621 26.126-10.621 20.699 0 37.483 16.778 37.483 37.481 0 10.166-4.051 19.379-10.622 26.127l0.006 0.005-0.235 0.237c-0.086 0.085-0.172 0.175-0.263 0.261l-383.441 383.441 383.911 383.969c6.779 6.781 10.978 16.149 10.978 26.504 0 20.699-16.778 37.477-37.482 37.477-11.064 0-20.999-4.795-27.862-12.416l-408.966-408.974zM280.554 410.479z"  horiz-adv-x="1024" />

    
    <glyph glyph-name="iconfontshanchu" unicode="&#58887;" d="M513.388 892.16c-280.262 0-509.568-229.306-509.568-509.568s229.306-509.568 509.568-509.568 509.568 229.306 509.568 509.568-229.306 509.568-509.568 509.568zM768.171 191.504l-63.696-63.696-191.088 191.087-191.088-191.088-63.696 63.696 191.088 191.088-191.089 191.088 63.696 63.696 191.088-191.088 191.088 191.088 63.696-63.696-191.087-191.087 191.088-191.088z"  horiz-adv-x="1024" />

    
    <glyph glyph-name="riqi" unicode="&#59036;" d="M853.332647 384.002557 739.555438 384.002557l0-113.780278 113.778232 0L853.33367 384.002557zM284.444554 896l-56.888605 0 0-170.663768 56.888605 0L284.444554 896zM568.888601 384.002557 455.111391 384.002557l0-113.780278 113.778232 0L568.889624 384.002557zM682.666833 839.110372 341.333159 839.110372l0-56.885536 341.333674 0L682.666833 839.110372zM284.444554 384.002557 170.666322 384.002557l0-113.780278 113.778232 0L284.444554 384.002557zM967.11088 839.110372 853.332647 839.110372l0-56.885536 56.888605 0c31.417118 0 56.888605-25.471487 56.888605-56.888605l0-170.669906L56.889112 554.666326 56.889112 725.336232c0 31.417118 25.469441 56.888605 56.888605 56.888605l56.888605 0L170.666322 839.110372 56.889112 839.110372c-31.420187 0-56.888605-25.469441-56.888605-56.885536l0-853.336232c0-31.417118 25.469441-56.888605 56.888605-56.888605l910.221768 0c31.420187 0 56.888605 25.471487 56.888605 56.888605L1023.999485 782.224837C1023.999485 813.641955 998.531067 839.110372 967.11088 839.110372zM967.11088-14.219722c0-31.420187-25.471487-56.891674-56.888605-56.891674L113.777717-71.111395c-31.420187 0-56.888605 25.471487-56.888605 56.891674l0 511.997443 910.221768 0L967.11088-14.219722zM284.444554 156.444047 170.666322 156.444047l0-113.775163 113.778232 0L284.444554 156.444047zM568.888601 156.444047 455.111391 156.444047l0-113.775163 113.778232 0L568.889624 156.444047zM796.444043 896l-56.888605 0 0-170.663768 56.888605 0L796.444043 896zM853.332647 156.444047 739.555438 156.444047l0-113.775163 113.778232 0L853.33367 156.444047z"  horiz-adv-x="1024" />

    
    <glyph glyph-name="xinxi" unicode="&#58885;" d="M512 857.6C209.92 857.6 0 673.28 0 442.88c0-145.92 66.56-273.92 217.6-348.16l0-184.32 261.12 120.32c10.24 0 23.04-2.56 33.28-2.56 302.08 0 512 184.32 512 414.72C1024 673.28 814.08 857.6 512 857.6zM256 371.2c-43.52 0-76.8 33.28-76.8 76.8 0 43.52 33.28 76.8 76.8 76.8 43.52 0 76.8-33.28 76.8-76.8C332.8 404.48 299.52 371.2 256 371.2zM512 371.2c-43.52 0-76.8 33.28-76.8 76.8 0 43.52 33.28 76.8 76.8 76.8s76.8-33.28 76.8-76.8C588.8 404.48 555.52 371.2 512 371.2zM768 371.2c-43.52 0-76.8 33.28-76.8 76.8 0 43.52 33.28 76.8 76.8 76.8 43.52 0 76.8-33.28 76.8-76.8C844.8 404.48 811.52 371.2 768 371.2z"  horiz-adv-x="1024" />

    
    <glyph glyph-name="jiahao" unicode="&#58922;" d="M964.875898 442.878773 570.633445 442.878773 570.633445 837.121227c0 32.383325-26.25012 58.878773-58.878773 58.878773-32.383325 0-58.878773-26.25012-58.878773-58.878773l0-394.242453L58.878773 442.878773c-32.383325 0-58.878773-26.25012-58.878773-58.878773 0-32.383325 26.25012-58.878773 58.878773-58.878773l394.242453 0 0-394.242453c0-32.383325 26.25012-58.878773 58.878773-58.878773 32.383325 0 58.878773 26.25012 58.878773 58.878773L570.878773 325.366555l394.242453 0c32.383325 0 58.878773 26.25012 58.878773 58.878773C1023.754672 416.628654 997.504552 442.878773 964.875898 442.878773L964.875898 442.878773zM964.875898 442.878773"  horiz-adv-x="1024" />

    
    <glyph glyph-name="shuichan" unicode="&#58940;" d="M991.749 476.763c-9.596 6.398-25.589 3.198-35.186-3.198l-134.346-105.557c-41.582 57.578-147.139 182.326-310.274 227.107-6.398 35.186 0 70.371 12.795 95.962 6.398 9.596 6.398 22.39 0 31.986-3.198 6.398-12.795 12.795-25.589 12.795-76.769 0-147.139-57.578-188.723-118.352 73.571-76.769 124.75-201.519 124.75-297.479 0-83.167-22.39-201.519-86.365-284.685 15.994-3.198 31.986-3.198 51.179-3.198 227.107 0 371.049 169.533 422.229 239.903l131.147-105.557c6.398-3.198 12.795-6.398 19.193-6.398 3.198 0 9.596 0 12.795 3.198 9.596 6.398 19.193 15.994 19.193 28.788v255.897c6.398 12.795 0 22.39-12.795 28.788zM371.202 320.027c0 83.167-47.98 191.922-111.955 255.895-150.339-70.371-236.703-233.505-239.903-239.903-3.198-9.596-3.198-19.193 0-28.788 3.198-9.596 95.962-188.723 262.293-249.499 67.173 67.173 89.565 182.326 89.565 262.294z"  horiz-adv-x="1024" />

    
    <glyph glyph-name="f-plus" unicode="&#58891;" d="M2.627 893.378v-1018.757h1018.749v1018.757h-1018.749zM948.604-52.611h-873.214v873.223h873.214v-873.223zM184.556 420.375h654.91v-72.771h-654.91v72.771zM539.747 704.050v-654.899h-72.748v654.899h72.748z"  horiz-adv-x="1024" />

    
    <glyph glyph-name="zhifuchenggongchenggongicon" unicode="&#58934;" d="M504.364881-127.380773c-67.953865 0-133.89197 13.315897-195.982812 39.578167-59.956272 25.360112-113.796796 61.65688-160.024354 107.884438-46.227557 46.227557-82.524325 100.067075-107.884438 160.023347-26.262271 62.090843-39.578167 128.027941-39.578167 195.982812S14.212014 509.979961 40.474284 572.069797c25.360112 59.956272 61.65688 113.796796 107.884438 160.023347 46.227557 46.227557 100.067075 82.525332 160.024354 107.884438 62.090843 26.262271 128.027941 39.578167 195.982812 39.578167 132.166189 0 257.036576-50.82796 351.609144-143.119961 12.437903-12.137855 12.68056-32.059846 0.542705-44.497749-12.136848-12.437903-32.06186-12.679553-44.496742-0.542705C729.270123 772.148569 620.00929 816.622153 504.364881 816.622153c-242.91216 0-440.535169-197.623009-440.535169-440.535169 0-242.911153 197.623009-440.534162 440.535169-440.534162 242.911153 0 440.534162 197.623009 440.534162 440.534162 0 26.125336-2.301712 52.294974-6.839689 77.78296-3.046798 17.109794 8.353019 33.449331 25.462814 36.496129 17.106774 3.045791 33.449331-8.354026 36.495122-25.462814 5.185396-29.119777 7.815349-59.002763 7.815349-88.816275 0-67.953865-13.315897-133.89197-39.578167-195.982812-25.360112-59.956272-61.65688-113.79579-107.884438-160.023347s-100.067075-82.525332-160.023347-107.884438C638.255844-114.064876 572.318746-127.380773 504.364881-127.380773zM442.983884 91.784285c-8.345971 0-16.349605 3.315633-22.250888 9.215909l-223.494613 223.49562c-12.288886 12.288886-12.288886 32.211884 0 44.50077 12.288886 12.287879 32.211884 12.287879 44.50077 0l201.244731-201.244731 448.203514 448.204521c12.288886 12.287879 32.211884 12.287879 44.50077 0 12.287879-12.288886 12.287879-32.212891 0-44.50077L465.234773 101.001202C459.333489 95.099918 451.329855 91.784285 442.983884 91.784285z"  horiz-adv-x="1024" />

    
    <glyph glyph-name="zhifushibaishibaiicon" unicode="&#58935;" d="M504.364881-127.380773c-67.953865 0-133.89197 13.315897-195.982812 39.578167-59.956272 25.360112-113.796796 61.65688-160.024354 107.884438-46.227557 46.227557-82.524325 100.067075-107.884438 160.023347-26.262271 62.090843-39.578167 128.027941-39.578167 195.982812S14.212014 509.979961 40.474284 572.069797c25.360112 59.956272 61.65688 113.796796 107.884438 160.023347 46.227557 46.227557 100.067075 82.525332 160.024354 107.884438 62.090843 26.262271 128.027941 39.578167 195.982812 39.578167 132.166189 0 257.036576-50.82796 351.609144-143.119961 12.437903-12.137855 12.68056-32.059846 0.542705-44.497749-12.136848-12.437903-32.06186-12.679553-44.496742-0.542705C729.270123 772.148569 620.00929 816.622153 504.364881 816.622153c-242.91216 0-440.535169-197.623009-440.535169-440.535169 0-242.911153 197.623009-440.534162 440.535169-440.534162 242.911153 0 440.534162 197.623009 440.534162 440.534162 0 26.125336-2.301712 52.294974-6.839689 77.78296-3.046798 17.109794 8.353019 33.449331 25.462814 36.496129 17.106774 3.045791 33.449331-8.354026 36.495122-25.462814 5.185396-29.119777 7.815349-59.002763 7.815349-88.816275 0-67.953865-13.315897-133.89197-39.578167-195.982812-25.360112-59.956272-61.65688-113.79579-107.884438-160.023347s-100.067075-82.525332-160.023347-107.884438C638.255844-114.064876 572.318746-127.380773 504.364881-127.380773zM693.356974 155.610977c-8.053978 0-16.104935 3.07197-22.250888 9.215909L293.547808 542.386171c-12.288886 12.288886-12.288886 32.212891 0 44.50077 12.288886 12.287879 32.212891 12.287879 44.50077 0L715.606855 209.327657c12.287879-12.288886 12.287879-32.211884 0-44.50077C709.463923 158.683954 701.408938 155.610977 693.356974 155.610977zM315.798696 155.610977c-8.052971 0-16.105942 3.07197-22.250888 9.215909-12.288886 12.288886-12.288886 32.211884 0 44.50077l377.558278 377.558278c12.288886 12.287879 32.211884 12.287879 44.50077 0 12.287879-12.288886 12.287879-32.212891 0-44.50077L338.048578 164.826887C331.904638 158.682947 323.851667 155.610977 315.798696 155.610977z"  horiz-adv-x="1024" />

    
    <glyph glyph-name="kefu" unicode="&#58938;" d="M956.606 93.59h-155.808c-18.531 0-33.719 15.095-33.719 33.823l-0.286 397.392c-2.388 138.902-115.301 245.131-254.484 245.7-139.285-0.57-252.105-106.798-254.396-245.7l-0.285-344.757c0 0 43.466-150.265 147.211-132.787 7.925 26.371 35.629 36.211 53.684 36.211h109.285c37.253 0 67.538-30.284 67.538-67.541v-21.118c0-37.35-30.285-67.533-67.538-67.533h-100.402c-28.562 0-52.825 17.859-62.763 43.083-1.718 0.951-15.091-0.29-28.277 2.576-102.213 36.493-147.108 121.127-147.108 121.127-1.821-0.279-3.538-0.57-5.349-0.57h-155.902c-18.535 0-33.724 15.095-33.724 33.814v345.812c0 18.535 15.091 33.725 33.724 33.725h111.381c0 28.562-0.094 17.957-0.094 17.957 4.014 323.174 327.376 324.225 327.376 324.225 2.483 0.098 8.594 0.098 11.082 0 0 0 323.362-1.143 327.371-324.225 0 0 0 10.605-0.093-17.957h111.387c18.628 0 33.724-15.091 33.724-33.725v-345.812c0.188-18.624-15.002-33.721-33.533-33.721zM186.362 407.977c0 11.465-6.208 20.73-13.751 20.73h-57.511c-7.548 0-13.756-9.364-13.756-20.73v-213.030c0-11.465 6.208-20.828 13.756-20.828h57.511c7.542 0 13.751 9.363 13.751 20.828v213.030zM923.172 407.977c0 11.465-6.208 20.73-13.756 20.73h-57.506c-7.548 0-13.853-9.364-13.853-20.73v-213.030c0-11.465 6.208-20.828 13.853-20.828h57.506c7.548 0 13.756 9.363 13.756 20.828v213.030z"  horiz-adv-x="1024" />

    
    <glyph glyph-name="warning" unicode="&#58890;" d="M516.493 115.715c-27.114 0-49.090 21.97-49.090 49.082 0 27.106 21.977 49.076 49.090 49.076 27.099 0 49.076-21.968 49.076-49.076-0.001-27.111-21.978-49.082-49.076-49.082v0zM516.493 278.629c-22.678 0-41.121 18.443-41.121 41.121v307.486c0 22.666 18.444 41.106 41.121 41.106 22.662 0 41.106-18.439 41.106-41.106v-307.485c-0.001-22.681-18.444-41.123-41.106-41.123zM516.485 863.133c-264.074 0-478.138-214.067-478.138-478.141 0-264.086 214.064-478.156 478.138-478.156 264.066 0 478.138 214.069 478.138 478.156 0 264.074-214.071 478.141-478.138 478.141zM516.485-29.415c-228.494 0-414.386 185.895-414.386 414.406 0 228.496 185.893 414.39 414.386 414.39 228.492 0 414.386-185.893 414.386-414.39 0-228.51-185.893-414.406-414.386-414.406z"  horiz-adv-x="1024" />

    
    <glyph glyph-name="riqi1" unicode="&#58964;" d="M306.777242 819.6875C306.777242 833.556751 318.652262 844.8 332.377242 844.8 346.515763 844.8 357.977242 833.789063 357.977242 819.6875L357.977242 665.1125C357.977242 651.243249 346.102272 640 332.377242 640 318.238771 640 306.777242 651.010937 306.777242 665.1125L306.777242 819.6875ZM665.177242 819.6875C665.177242 833.556751 677.052262 844.8 690.777242 844.8 704.915763 844.8 716.377242 833.789063 716.377242 819.6875L716.377242 665.1125C716.377242 651.243249 704.502272 640 690.777242 640 676.638771 640 665.177242 651.010937 665.177242 665.1125L665.177242 819.6875ZM409.177242 793.6 613.977242 793.6 613.977242 742.4 409.177242 742.4 409.177242 793.6ZM767.577242 793.6 767.577242 742.4 921.177242 742.4 921.177242 588.8 101.977242 588.800002 101.977242 742.4 255.577242 742.4 255.577242 793.6 101.977242 793.6C76.377242 793.6 50.777242 768 50.777242 742.400002 50.777242 742.400002 48.543283 59.109683 50.777242 25.6 53.011251-7.909683 76.377242-25.6 101.977242-25.6L921.177242-25.6C923.388979-25.6 972.377242-25.6 972.377242 25.6L972.377242 742.4C972.377242 768 946.777242 793.600001 921.177242 793.6 844.377242 793.600001 767.577242 793.6 767.577242 793.6ZM101.977242 537.6 921.177242 537.6 921.177242 25.6 101.977242 25.6 101.977242 537.6Z"  horiz-adv-x="1024" />

    
    <glyph glyph-name="diaoweipin" unicode="&#58910;" d="M839.36 401.088l-66.304 128.64h-0.768v53.12h22.528v71.104h-200.96v-71.104h20.096v-55.232l-65.152-126.528v-495.744h291.008v495.744h-0.448zM811.648 28.8h-240.96v250.816h240.96v-250.816zM581.76 550.144l-90.688 176h-1.088v72.64h30.848v97.216h-274.944v-97.216h27.584v-75.648l-89.28-172.992v-678.144h398.208v678.144h-0.64zM543.744 40.768h-329.6v343.232h329.6v-343.232z"  horiz-adv-x="1024" />

    
    <glyph glyph-name="8shucai" unicode="&#58882;" d="M343.487 38.459c-37.026-6.889-74.901-21.95-110.821-18.211-31.585 3.289-70.5 20.182-89.302 44.251-35.761 45.774-32.43 101.505 12.975 141.374 36.492 32.041 78.689 61.229 123.317 79.686 148.087 61.248 296.068 42.676 444.010-13.94-145.319-50.585-269.794-132.666-381.876-234.693 0.001-0.001 1.697 1.534 1.697 1.534zM817.777 641.985c103.051-19.73 159.652-70.243 169.43-147.18 9.058-71.268-12.514-117.721-66.539-143.275-14.682 108.405-91.341 148.721-166.834 118.407-25.966 31.564-50.122 64.906-78.638 93.969-16.85 17.174-39.174 35.443-61.524 39.492-57.409 10.402-89.041 34.383-99.818 97.021-9.388 54.562 13.493 101.651 67.772 85.763 55.155-16.145 109.655-22.577 165.111-32.067 50.845-8.701 74.746-55.917 71.039-112.132zM472.923 597.89c63.175 11.956 127.009-0.022 189.617-55.118-81.118-6.498-120.562-64.454-171.111-107.31-24.527-20.795-53.993-53.606-84.595-2.829-3.197 5.305-19.253 5.249-28.821 3.922-49.148-6.816-79.036 20.506-78.531 69.216 0.153 14.759-5.765 33.067-15.469 43.827-36.979 41.006-44.639 89.382-17.716 136.782 28.665 50.467 86.481 75.897 144.229 63.44 49.881-10.761 95.078-55.504 93.855-101.966-0.455-17.197-20.753-33.869-31.456-49.963zM568.49 185.369c66.221 26.891 132.441 53.782 198.66 80.674 1.377 3.871 2.755 7.741 4.133 11.612-51.655 19.033-103.312 38.066-151.918 55.975 39.92 30.969 84.243 64.507 127.582 99.273 28.79 23.095 57.838 38.798 94.847 18.749 36.45-19.746 61.645-50.159 56.854-91.203-5.467-46.834 12.268-81.837 33.597-120.393 14.998-27.111 23.923-62.721 21.231-93.274-4.014-45.558-33.518-54.125-73.996-31.42-13.856 7.773-31.040 11.62-47.089 13.119-63.852 5.961-123.195 45.936-192.496 19.363-18.193-6.976-46.899 13.466-70.779 21.315-0.208 5.401-0.418 10.804-0.627 16.208zM580.060 494.049c-10.919-69.627-45.886-118.347-111.422-138.211-52.132-15.801-106.992-23.391-157.981-41.941-47.657-17.337-95.455-39.236-136.325-68.665-31.386-22.601-52.097-60.025-82.828-97.238-59.463-1.196-70.47 38.784-40.958 93.333 20.737 38.326 66.619 65.089 105.207 91.199 48.387 32.741 100.8 59.534 161.441 94.668 26.877-9.366 67.61-29.474 110.414-36.006 21.681-3.309 49.807 14.161 70.192 28.91 29.703 21.494 55.052 49.005 82.258 73.951zM597.596 68.059c-60.468-58.371-109.945 31.646-170.342 9.485-1.669 3.66-3.339 7.321-5.008 10.98 35.527 23.63 70.333 48.506 107.188 69.839 7.411 4.29 22.629-4.802 34.215-7.849 29.691-7.807 63.095-28.451 88.327-21.077 68.653 20.065 127.335-18.422 191.466-20.998 36.634-1.471 44.835-27.37 18.355-52.779-16.58-15.91-41.809-30.713-63.739-31.598-56.409-2.277-113.303 1.861-169.598 7.49-10.228 1.022-18.538 21.264-30.864 36.506zM523.653 346.585c31.146 50.483 57.327 101.001 92.093 144.685 11.443 14.38 49.988 21.686 67.541 13.588 33.106-15.275 35.41-50.432 15.578-80.226-41.498-62.341-104.108-80.273-175.212-78.047zM341.791 36.924c25.022 10.181 50.046 20.364 85.090 34.623-87.498-98.751-255.020-125.53-286.159-47.168 71.399-21.847 139.798-31.621 202.708 14.047 0.057 0.033-1.639-1.502-1.639-1.502zM49.946 137.293c55.499-23.187 75.962-62.623 65.927-118.989-21.223 38.305-41.734 75.325-65.927 118.989z"  horiz-adv-x="1024" />

    
    <glyph glyph-name="cailanzi" unicode="&#58884;" d="M909.876 501.674h-115.343l-196.317 234.182c4.66 7.573 7.573 15.729 7.573 25.050 0 26.214-20.972 47.186-46.604 47.186s-46.604-20.972-46.604-47.186c0-26.214 20.972-47.186 46.604-47.186 3.495 0 7.573 0.582 10.485 1.165l179.423-213.211h-473.606l179.423 213.211c3.495-0.582 6.991-1.165 10.485-1.165 25.632 0 46.604 20.972 46.604 47.186 0 26.214-20.972 47.186-46.604 47.186s-46.604-20.972-46.604-47.186c0-9.321 2.913-18.059 7.573-25.050l-196.317-234.182h-115.343c-32.622 0-58.836-26.214-58.836-58.836s26.214-58.836 58.836-58.836h2.331l21.554-283.116c5.825-78.061 73.983-140.975 152.044-140.975h443.898c78.061 0 146.218 62.914 152.044 140.975l21.554 283.116h2.331c32.622 0 58.836 26.214 58.836 58.836s-26.797 58.836-59.42 58.836z"  horiz-adv-x="1024" />

    
    <glyph glyph-name="yangshengicon" unicode="&#58902;" d="M509.061 245.945c-24.82 0-49.341 11.888-50.373 12.394l-0.729 0.386c-124.396 70.782-213.673 151.84-265.353 240.923-31.659 54.569-48.673 111.667-50.574 169.721-0.348 6.954-0.631 15.19-0.107 23.661 6.377 111.394 101.266 197.189 211.489 191.225 54.899-3.042 104.962-28.377 141.052-71.349 0.515-0.526 0.939-0.997 1.273-1.372 0.13-0.146 0.256-0.293 0.394-0.434 5.793-5.579 11.267-11.578 16.537-18.134 20.033 24.39 44.804 44.103 72.999 57.898-59.236-42.591-58.698-41.983-58.128-41.34 0.962 1.088 2.034 2.297 3.322 3.532 36.176 42.891 86.186 68.169 140.909 71.199 110.244 5.988 205.106-79.828 211.51-191.28 0.405-6.986 0.362-14.279-0.14-23.622-1.884-58.237-19.001-115.532-50.879-170.298-52.038-89.401-141.948-170.673-267.23-241.561l-1.002-0.565-1.085-0.389c-1.209-0.434-29.822-10.589-53.887-10.589zM470.833 282.339c2.565-1.196 21.006-9.503 38.228-9.503 17.125 0 38.865 6.997 43.796 8.662 193.894 109.983 298.804 244.427 303.411 388.851l0.013 0.297c0.453 8.375 0.5 14.781 0.154 20.77-5.556 96.702-87.735 171.147-183.19 165.977-47.468-2.629-90.905-24.734-122.294-62.243l-0.599-0.716-0.693-0.627c-0.53-0.48-1.238-1.279-1.987-2.126-6.298-7.196-13.961-13.023-22.606-17.114-0.683-6.736-16.539-32.732-25.6-61.728l13.121 33.645-11.111 16.372c-7.575 11.159-15.387 20.566-23.881 28.753-3.276 3.143-5.872 6.969-7.565 11.249 5.52-9.1 5.395-8.953 5.257-8.81l-0.581 0.548-0.462 0.565c-31.291 37.494-74.724 59.595-122.299 62.23-95.469 5.19-177.637-69.275-183.173-165.968-0.447-7.234-0.203-14.282 0.127-20.829l0.011-0.241c4.666-144.003 109.067-278.167 301.926-388.018zM509.061 245.945c-24.82 0-49.341 11.888-50.373 12.394l-0.729 0.386c-124.396 70.782-213.673 151.84-265.353 240.923-31.659 54.569-48.673 111.667-50.574 169.721-0.348 6.954-0.631 15.19-0.107 23.661 6.377 111.394 101.266 197.189 211.489 191.225 54.899-3.042 104.962-28.377 141.052-71.349 0.515-0.526 0.939-0.997 1.273-1.372 0.13-0.146 0.256-0.293 0.394-0.434 5.793-5.579 11.267-11.578 16.537-18.134 20.033 24.39 44.804 44.103 72.999 57.898-59.236-42.591-58.698-41.983-58.128-41.34 0.962 1.088 2.034 2.297 3.322 3.532 36.176 42.891 86.186 68.169 140.909 71.199 110.244 5.988 205.106-79.828 211.51-191.28 0.405-6.986 0.362-14.279-0.14-23.622-1.884-58.237-19.001-115.532-50.879-170.298-52.038-89.401-141.948-170.673-267.23-241.561l-1.002-0.565-1.085-0.389c-1.209-0.434-29.822-10.589-53.887-10.589zM470.833 282.339c2.565-1.196 21.006-9.503 38.228-9.503 17.125 0 38.865 6.997 43.796 8.662 193.894 109.983 298.804 244.427 303.411 388.851l0.013 0.297c0.453 8.375 0.5 14.781 0.154 20.77-5.556 96.702-87.735 171.147-183.19 165.977-47.468-2.629-90.905-24.734-122.294-62.243l-0.599-0.716-0.693-0.627c-0.53-0.48-1.238-1.279-1.987-2.126-6.298-7.196-13.961-13.023-22.606-17.114-0.683-6.736-16.539-32.732-25.6-61.728l13.121 33.645-11.111 16.372c-7.575 11.159-15.387 20.566-23.881 28.753-3.276 3.143-5.872 6.969-7.565 11.249 5.52-9.1 5.395-8.953 5.257-8.81l-0.581 0.548-0.462 0.565c-31.291 37.494-74.724 59.595-122.299 62.23-95.469 5.19-177.637-69.275-183.173-165.968-0.447-7.234-0.203-14.282 0.127-20.829l0.011-0.241c4.666-144.003 109.067-278.167 301.926-388.018zM509.061 245.945c-24.82 0-49.341 11.888-50.373 12.394l-0.729 0.386c-124.396 70.782-213.673 151.84-265.353 240.923-31.659 54.569-48.673 111.667-50.574 169.721-0.348 6.954-0.631 15.19-0.107 23.661 6.377 111.394 101.266 197.189 211.489 191.225 54.899-3.042 104.962-28.377 141.052-71.349 0.515-0.526 0.939-0.997 1.273-1.372 0.13-0.146 0.256-0.293 0.394-0.434 5.793-5.579 11.267-11.578 16.537-18.134 20.033 24.39 44.804 44.103 72.999 57.898-59.236-42.591-58.698-41.983-58.128-41.34 0.962 1.088 2.034 2.297 3.322 3.532 36.176 42.891 86.186 68.169 140.909 71.199 110.244 5.988 205.106-79.828 211.51-191.28 0.405-6.986 0.362-14.279-0.14-23.622-1.884-58.237-19.001-115.532-50.879-170.298-52.038-89.401-141.948-170.673-267.23-241.561l-1.002-0.565-1.085-0.389c-1.209-0.434-29.822-10.589-53.887-10.589zM470.833 282.339c2.565-1.196 21.006-9.503 38.228-9.503 17.125 0 38.865 6.997 43.796 8.662 193.894 109.983 298.804 244.427 303.411 388.851l0.013 0.297c0.453 8.375 0.5 14.781 0.154 20.77-5.556 96.702-87.735 171.147-183.19 165.977-47.468-2.629-90.905-24.734-122.294-62.243l-0.599-0.716-0.693-0.627c-0.53-0.48-1.238-1.279-1.987-2.126-6.298-7.196-13.961-13.023-22.606-17.114-0.683-6.736-16.539-32.732-25.6-61.728l13.121 33.645-11.111 16.372c-7.575 11.159-15.387 20.566-23.881 28.753-3.276 3.143-5.872 6.969-7.565 11.249 5.52-9.1 5.395-8.953 5.257-8.81l-0.581 0.548-0.462 0.565c-31.291 37.494-74.724 59.595-122.299 62.23-95.469 5.19-177.637-69.275-183.173-165.968-0.447-7.234-0.203-14.282 0.127-20.829l0.011-0.241c4.666-144.003 109.067-278.167 301.926-388.018zM509.061 245.945c-24.82 0-49.341 11.888-50.373 12.394l-0.729 0.386c-124.396 70.782-213.673 151.84-265.353 240.923-31.659 54.569-48.673 111.667-50.574 169.721-0.348 6.954-0.631 15.19-0.107 23.661 6.377 111.394 101.266 197.189 211.489 191.225 54.899-3.042 104.962-28.377 141.052-71.349 0.515-0.526 0.939-0.997 1.273-1.372 0.13-0.146 0.256-0.293 0.394-0.434 5.793-5.579 11.267-11.578 16.537-18.134 20.033 24.39 44.804 44.103 72.999 57.898-59.236-42.591-58.698-41.983-58.128-41.34 0.962 1.088 2.034 2.297 3.322 3.532 36.176 42.891 86.186 68.169 140.909 71.199 110.244 5.988 205.106-79.828 211.51-191.28 0.405-6.986 0.362-14.279-0.14-23.622-1.884-58.237-19.001-115.532-50.879-170.298-52.038-89.401-141.948-170.673-267.23-241.561l-1.002-0.565-1.085-0.389c-1.209-0.434-29.822-10.589-53.887-10.589zM470.833 282.339c2.565-1.196 21.006-9.503 38.228-9.503 17.125 0 38.865 6.997 43.796 8.662 193.894 109.983 298.804 244.427 303.411 388.851l0.013 0.297c0.453 8.375 0.5 14.781 0.154 20.77-5.556 96.702-87.735 171.147-183.19 165.977-47.468-2.629-90.905-24.734-122.294-62.243l-0.599-0.716-0.693-0.627c-0.53-0.48-1.238-1.279-1.987-2.126-6.298-7.196-13.961-13.023-22.606-17.114-0.683-6.736-16.539-32.732-25.6-61.728l13.121 33.645-11.111 16.372c-7.575 11.159-15.387 20.566-23.881 28.753-3.276 3.143-5.872 6.969-7.565 11.249 5.52-9.1 5.395-8.953 5.257-8.81l-0.581 0.548-0.462 0.565c-31.291 37.494-74.724 59.595-122.299 62.23-95.469 5.19-177.637-69.275-183.173-165.968-0.447-7.234-0.203-14.282 0.127-20.829l0.011-0.241c4.666-144.003 109.067-278.167 301.926-388.018zM509.061 245.945c-24.82 0-49.341 11.888-50.373 12.394l-0.729 0.386c-124.396 70.782-213.673 151.84-265.353 240.923-31.659 54.569-48.673 111.667-50.574 169.721-0.348 6.954-0.631 15.19-0.107 23.661 6.377 111.394 101.266 197.189 211.489 191.225 54.899-3.042 104.962-28.377 141.052-71.349 0.515-0.526 0.939-0.997 1.273-1.372 0.13-0.146 0.256-0.293 0.394-0.434 5.793-5.579 11.267-11.578 16.537-18.134 20.033 24.39 44.804 44.103 72.999 57.898-59.236-42.591-58.698-41.983-58.128-41.34 0.962 1.088 2.034 2.297 3.322 3.532 36.176 42.891 86.186 68.169 140.909 71.199 110.244 5.988 205.106-79.828 211.51-191.28 0.405-6.986 0.362-14.279-0.14-23.622-1.884-58.237-19.001-115.532-50.879-170.298-52.038-89.401-141.948-170.673-267.23-241.561l-1.002-0.565-1.085-0.389c-1.209-0.434-29.822-10.589-53.887-10.589zM470.833 282.339c2.565-1.196 21.006-9.503 38.228-9.503 17.125 0 38.865 6.997 43.796 8.662 193.894 109.983 298.804 244.427 303.411 388.851l0.013 0.297c0.453 8.375 0.5 14.781 0.154 20.77-5.556 96.702-87.735 171.147-183.19 165.977-47.468-2.629-90.905-24.734-122.294-62.243l-0.599-0.716-0.693-0.627c-0.53-0.48-1.238-1.279-1.987-2.126-6.298-7.196-13.961-13.023-22.606-17.114-0.683-6.736-16.539-32.732-25.6-61.728l13.121 33.645-11.111 16.372c-7.575 11.159-15.387 20.566-23.881 28.753-3.276 3.143-5.872 6.969-7.565 11.249 5.52-9.1 5.395-8.953 5.257-8.81l-0.581 0.548-0.462 0.565c-31.291 37.494-74.724 59.595-122.299 62.23-95.469 5.19-177.637-69.275-183.173-165.968-0.447-7.234-0.203-14.282 0.127-20.829l0.011-0.241c4.666-144.003 109.067-278.167 301.926-388.018zM558.41 269.191c286.305 161.996 309.215 335.418 311.297 400.732 0.405 7.506 0.582 14.819 0.15 22.274-5.99 104.27-94.316 184.215-197.341 178.626-53.585-2.967-99.828-28.742-131.877-67.040-1.827-1.652-3.351-3.657-5.078-5.41-22.175-22.525-39.109-50.277-48.781-81.235 18.255 64.423 9.775 74.885 0.098 84.206-0.838 0.787-1.475 1.65-2.31 2.439-32.075 38.433-78.318 64.073-131.877 67.040-103.025 5.59-191.373-74.355-197.341-178.626-0.46-7.455-0.256-14.768 0.122-22.274 2.11-65.137 24.895-237.773 309.141-399.513 0 0 22.466-11.020 44.452-11.020 22.002 0.001 49.346 9.801 49.346 9.801zM509.061 245.945c-24.82 0-49.341 11.888-50.373 12.394l-0.729 0.386c-124.396 70.782-213.673 151.84-265.353 240.923-31.659 54.569-48.673 111.667-50.574 169.721-0.348 6.954-0.631 15.19-0.107 23.661 6.377 111.394 101.266 197.189 211.489 191.225 54.899-3.042 104.962-28.377 141.052-71.349 0.515-0.526 0.939-0.997 1.273-1.372 0.13-0.146 0.256-0.293 0.394-0.434 5.793-5.579 11.267-11.578 16.537-18.134 20.033 24.39 44.804 44.103 72.999 57.898-59.236-42.591-58.698-41.983-58.128-41.34 0.962 1.088 2.034 2.297 3.322 3.532 36.176 42.891 86.186 68.169 140.909 71.199 110.244 5.988 205.106-79.828 211.51-191.28 0.405-6.986 0.362-14.279-0.14-23.622-1.884-58.237-19.001-115.532-50.879-170.298-52.038-89.401-141.948-170.673-267.23-241.561l-1.002-0.565-1.085-0.389c-1.209-0.434-29.822-10.589-53.887-10.589zM470.833 282.339c2.565-1.196 21.006-9.503 38.228-9.503 17.125 0 38.865 6.997 43.796 8.662 193.894 109.983 298.804 244.427 303.411 388.851l0.013 0.297c0.453 8.375 0.5 14.781 0.154 20.77-5.556 96.702-87.735 171.147-183.19 165.977-47.468-2.629-90.905-24.734-122.294-62.243l-0.599-0.716-0.693-0.627c-0.53-0.48-1.238-1.279-1.987-2.126-6.298-7.196-13.961-13.023-22.606-17.114-0.683-6.736-16.539-32.732-25.6-61.728l13.121 33.645-11.111 16.372c-7.575 11.159-15.387 20.566-23.881 28.753-3.276 3.143-5.872 6.969-7.565 11.249 5.52-9.1 5.395-8.953 5.257-8.81l-0.581 0.548-0.462 0.565c-31.291 37.494-74.724 59.595-122.299 62.23-95.469 5.19-177.637-69.275-183.173-165.968-0.447-7.234-0.203-14.282 0.127-20.829l0.011-0.241c4.666-144.003 109.067-278.167 301.926-388.018zM413.184-115.329c-7.35 0-15.070 0.42-23.119 1.382-54.202 6.473-106.847 34.881-156.471 84.441-111.457 111.308-123.57 244.806-123.604 297.036-0.005 8.29 3.612 16.655 9.923 22.95 6.281 6.263 14.603 9.851 22.848 9.851h0.096c51.999-0.169 184.937-12.539 296.033-123.485 49.428-49.361 78.041-101.739 85.042-155.675 5.867-45.202-5.347-80.067-12.555-96.827-4.629-10.763-13.437-19.678-24.166-24.462-13.824-6.162-39.936-15.211-74.026-15.211zM142.759 273.439c-0.922 0-2.469-0.617-3.855-2-1.397-1.393-2.021-2.958-2.020-3.891 0.033-48.88 11.373-173.822 115.715-278.026 61.883-61.801 118.277-78.128 160.575-78.129 28.079-0.001 49.941 7.191 63.088 13.052 4.559 2.033 8.451 5.967 10.411 10.525 14.125 32.844 35.889 120.309-66.785 222.849-104.021 103.883-228.45 115.462-277.118 115.621h-0.010zM486.845-89.027c-0.005 0-0.012 0-0.018 0-3.708 0-7.063 1.505-9.49 3.939l-178.114 178.115c-5.251 5.251-5.251 13.765 0 19.015 5.252 5.253 13.765 5.253 19.017 0l178.113-178.114c5.252-5.251 5.252-13.765 0-19.015-2.427-2.434-5.783-3.939-9.49-3.939-0.005 0-0.012 0-0.018 0zM610.816-115.329c-34.093-0.001-60.202 9.049-74.025 15.211-10.733 4.784-19.54 13.701-24.169 24.463-7.205 16.759-18.42 51.625-12.554 96.826 7.002 53.936 35.615 106.313 85.042 155.675 111.097 110.947 244.035 123.316 296.035 123.485h0.093c8.244 0 16.567-3.587 22.848-9.851 6.311-6.295 9.929-14.66 9.922-22.95-0.034-52.228-12.148-185.73-123.603-297.036-49.627-49.559-102.271-77.97-156.473-84.441-6.951-0.88-14.995-1.382-23.156-1.382zM881.233 273.439c-48.669-0.158-173.097-11.739-277.117-115.621-102.676-102.538-80.911-190.002-66.786-222.849 1.959-4.557 5.851-8.49 10.412-10.525 32.945-14.687 120.695-37.749 223.661 65.078 104.342 104.203 115.682 229.145 115.715 278.026 0 0.933-0.624 2.497-2.020 3.891-1.39 1.386-2.916 1.97-3.863 1.999zM537.154-89.027c-0.005 0-0.013 0-0.019 0-3.707 0-7.062 1.505-9.488 3.939-5.252 5.251-5.252 13.765 0 19.015l171.917 171.917c5.251 5.253 13.765 5.253 19.015 0 5.252-5.251 5.252-13.765 0-19.015l-171.917-171.918c-2.427-2.433-5.782-3.938-9.489-3.938-0.006 0-0.014 0-0.020 0z"  horiz-adv-x="1024" />

    
    <glyph glyph-name="duigou" unicode="&#58904;" d="M218.453 571.947l-181.867-181.867 380.373-380.373 573.227 573.333-181.867 181.867-391.36-391.36z"  horiz-adv-x="1024" />

    
    <glyph glyph-name="zhuoyou-tuangou" unicode="&#59926;" d="M712.426618 43.912842a53.742839 53.742839 0 0 0-1.53198 12.705548V521.198674c0 46.804453-36.574782 84.881564-81.54086 84.881564H108.021056c-44.961136 0-81.54086-38.077111-81.540859-84.881564v-464.580284c0-4.289543-0.513955-8.559319-1.527038-12.695665L8.817952-22.214325c-6.434315-26.374762-0.632559-53.5847 15.912822-74.651892 15.542182-19.787249 38.546588-31.133783 63.117568-31.133783h561.683093c24.566037 0 47.575385 11.346534 63.112625 31.133783 16.550324 21.082019 22.342196 48.287015 15.922706 74.651892l-16.140148 66.127167z m-26.987554-119.410412c-8.944785-11.391011-22.025916-17.909338-35.912571-17.909338H87.853284c-13.886656 0-26.972728 6.518327-35.912572 17.909338-9.947985 12.666014-13.412236 29.097732-9.5131 45.084683l16.135206 66.127166a88.261803 88.261803 0 0 1 2.510471 20.904111V521.198674c0 27.728834 21.062251 50.288472 46.947767 50.288472h521.337664c25.885517 0 46.947768-22.559638 46.947768-50.288472v-464.580284c0-7.02734 0.850002-14.064563 2.515412-20.899169l16.140148-66.132108c3.889252-15.98695 0.425001-32.418669-9.522984-45.084683M242.247195 492.264023v25.747144a17.296546 17.296546 0 1 0 34.593092 0v-25.747144c0-50.644287 41.205314-91.849601 91.849601-91.849601s91.849601 41.205314 91.849601 91.849601v25.747144a17.296546 17.296546 0 1 0 34.593092 0v-25.747144c0-69.719906-56.722787-126.442693-126.442693-126.442693S242.247195 422.544117 242.247195 492.264023M18.948786 750.941282c-5.520069 20.592773-2.737796 41.763746 7.748853 59.93006a78.046957 78.046957 0 0 0 47.698932 36.599492L244.48092 893.044762a78.032132 78.032132 0 0 0 59.603898-7.84769 78.012364 78.012364 0 0 0 36.594549-47.693991l51.178009-191.003286a17.296546 17.296546 0 0 0-33.416927-8.949727L307.267382 828.553354a43.646598 43.646598 0 0 1-20.47911 26.6861 43.646598 43.646598 0 0 1-33.347741 4.388381L83.35124 814.053907a43.621889 43.621889 0 0 1-26.6861-20.479111 43.656482 43.656482 0 0 1-4.393322-33.352682l35.833501-123.872921a17.296546 17.296546 0 0 0-33.234078-9.611937L18.948786 750.941282zM337.061918 878.703454a17.296546 17.296546 0 0 0 17.296546 17.296546h110.248185c43.310551 0 78.551028-35.230593 78.551028-78.541144V641.49368a17.296546 17.296546 0 1 0-34.593092 0V817.458856c0 24.234932-19.718062 43.948052-43.957936 43.948052H354.358464a17.296546 17.296546 0 0 0-17.296546 17.296546m209.624254-10.916591a17.301488 17.301488 0 0 0 21.185798 12.23607l87.189417-23.365162a77.997539 77.997539 0 0 0 47.689049-36.599492 77.992597 77.992597 0 0 0 7.84769-59.598955l-36.426526-135.975561a17.316313 17.316313 0 0 0-16.69858-12.829095 17.296546 17.296546 0 0 0-16.718347 21.778822l36.426526 135.975561a43.616947 43.616947 0 0 1-4.393323 33.352682 43.67625 43.67625 0 0 1-26.676216 20.479111l-87.199301 23.365162a17.296546 17.296546 0 0 0-12.226187 21.180857m454.009623-940.087043c-15.552066-20.078819-39.08031-31.60326-64.540826-31.60326h-154.809028a17.296546 17.296546 0 1 0 0 34.593092h154.809028a46.700674 46.700674 0 0 1 37.187574 18.195966 46.166952 46.166952 0 0 1 8.282575 40.08351l-16.130265 62.613496a81.377778 81.377778 0 0 0-2.569772 20.222134V511.621329c0 25.742202-21.067193 46.685849-46.947768 46.685849h-46.349801v-25.4704a17.296546 17.296546 0 1 0-34.593092 0v25.4704H749.218842a17.296546 17.296546 0 0 0 0 34.593092h85.642612c-1.833434 48.440213-41.704443 87.308022-90.584482 87.308022a17.296546 17.296546 0 0 0 0 34.593092c67.9606 0 123.42321-54.370457 125.266528-121.901114h46.433813c44.961136 0 81.54086-36.461119 81.54086-81.278941v-439.816571c0-3.889252 0.504071-7.788388 1.477619-11.59857l16.130264-62.603613a80.532718 80.532718 0 0 0-14.430261-69.902755M242.113765 698.868794a17.291604 17.291604 0 0 0 5.534894-20.676785l-10.733742-25.000922a17.296546 17.296546 0 0 0-26.251215-7.037223l-21.793648 16.288404a17.296546 17.296546 0 0 0-5.534895 20.676786l10.733743 25.005863a17.291604 17.291604 0 0 0 26.251215 7.032282l21.793648-16.288405z m277.55026-445.667746c1.843318 20.227075-8.742169 29.878548-31.711981 28.969244H249.299244c-19.307887 1.828492-28.059939-8.277633-26.206738-30.357909v-237.264135c-1.853201-23.903827 8.277633-34.934081 30.348025-33.100647h230.365284c26.66139-1.833434 38.625658 8.752052 35.853269 31.726807l0.004941 240.02664z m-38.615774-19.307887v-34.489313c-1.853201 5.520069-6.898851 8.277633-15.171542 8.277633h-26.21168v17.934047c-0.929072 9.181995-7.368329 14.257296-19.307887 15.176484-12.888398-0.929072-19.787249-5.994489-20.696553-15.176484v-17.934047H286.54612c-9.201762-0.929072-13.79276-6.898851-13.79276-17.929105s4.590997-17.019801 13.79276-17.934048h96.559204c-34.034661-36.787282-68.519032-66.685598-103.458055-89.675178-11.964268-7.358445-13.34305-17.479395-4.141287-30.343083 6.424431-8.277633 17.459628-8.277633 33.105589 0 31.252388 19.307887 61.600413 45.979161 91.044076 79.998996v-57.933546c0-6.454083-4.136345-9.651473-12.413978-9.651472-2.762505 0-5.994489 0.444768-9.661356 1.368898h-8.272691c-11.035196 0-17.024743-5.510185-17.934047-16.560208-2.762505-17.474453 12.413978-25.757028 45.519567-24.823014 32.181459-2.757564 46.428871 10.106125 42.762003 38.625658v108.973182h28.969244c5.510185 0 9.651473 2.283144 12.413978 6.898851v-151.740127c0-6.449141-3.231983-9.661356-9.656414-9.661357H271.374579c-7.37327-0.92413-10.585486 2.29797-9.656415 9.661357v205.532385c-0.929072 8.287516 2.283144 11.939559 9.656415 11.040138h200.017257c7.348561 0.914246 10.560777-2.293028 9.656415-9.636647"  horiz-adv-x="1024" />

    
    <glyph glyph-name="yingyong-diyubiaoqian" unicode="&#58973;" d="M511.97952-128h-0.04096c-15.6672 0-48.20992 0-323.50208 454.10304a384.38912 384.38912 0 0 0-50.85184 190.3616C137.58464 725.74976 305.52064 896 511.95904 896 718.4384 896 886.41536 725.74976 886.41536 516.46464a382.1568 382.1568 0 0 0-50.4832-189.8496l-6.656-10.5472C560.20992-127.93856 527.64672-127.95904 511.97952-128z m0.12288 796.50816c-82.7392 0-150.05696-68.17792-150.05696-151.98208s67.31776-151.98208 150.05696-151.98208c82.78016 0 150.15936 68.17792 150.15936 151.98208s-67.3792 151.98208-150.15936 151.98208z"  horiz-adv-x="1024" />

    
    <glyph glyph-name="icon-" unicode="&#58909;" d="M307.2 486.4c-28.16 0-51.2-23.040-51.2-51.2s23.040-51.2 51.2-51.2 51.2 23.040 51.2 51.2-23.040 51.2-51.2 51.2zM512 486.4c-28.16 0-51.2-23.040-51.2-51.2s23.040-51.2 51.2-51.2 51.2 23.040 51.2 51.2-23.040 51.2-51.2 51.2zM819.2 768s-153.6 51.2-307.2 128c-128-76.8-307.2-128-307.2-128-53.76-20.48-76.8-53.76-76.8-76.8v-486.4c0-117.76 281.6-332.8 384-332.8s384 207.36 384 332.8v486.4c0 23.040-33.28 61.44-76.8 76.8zM844.8 204.8c0-71.68-230.4-281.6-332.8-281.6s-332.8 209.92-332.8 281.6v460.8c0 23.040 23.040 38.4 51.2 51.2 0 0 179.2 69.12 281.6 128 102.4-58.88 281.6-128 281.6-128 23.040-10.24 51.2-28.16 51.2-51.2v-460.8zM716.8 486.4c-28.16 0-51.2-23.040-51.2-51.2s23.040-51.2 51.2-51.2 51.2 23.040 51.2 51.2-23.040 51.2-51.2 51.2z"  horiz-adv-x="1024" />

    
    <glyph glyph-name="guochanshuiguo" unicode="&#58880;" d="M656.8 649.6c-117.6 0-220-67.2-270.4-165.6 16.8-4 32.8-8.8 48.8-16 34.4-14.4 64.8-35.2 91.2-62.4 26.4-26.4 47.2-57.6 61.6-92 15.2-36 22.4-73.6 22.4-112.8s-8-76.8-22.4-112.8c-5.6-13.6-12-26.4-20-38.4 28.8-8.8 58.4-12.8 88-12.8 168 0 304.8 136.8 304.8 306.4 0 169.6-136 306.4-304 306.4zM429.6 816c0.8-48.8 24.8-97.6 68.8-126.4 44-28.8 97.6-32 142.4-12.8-0.8 48.8-24.8 97.6-68.8 126.4-43.2 28.8-96.8 32-142.4 12.8zM673.6 676c28.8-12 63.2-10.4 92 8.8 28 18.4 44 49.6 44 81.6-28.8 12-63.2 10.4-92-8.8-28-19.2-44-49.6-44-81.6zM363.2 177.6l97.6-116.8c9.6 8.8 17.6 19.2 24.8 29.6 15.2 22.4 25.6 48 30.4 74.4-51.2 4-87.2 7.2-112.8 9.6-18.4 1.6-31.2 2.4-40 3.2zM128 200c0-50.4 20-88.8 35.2-111.2l115.2 97.6-150.4 13.6zM321.6 397.6c-40-0.8-80-13.6-112-36.8l98.4-117.6 13.6 154.4zM366.4 213.6l15.2-1.6 136.8-12c0 42.4-12 80.8-35.2 113.6-35.2-29.6-79.2-67.2-107.2-91.2-3.2-3.2-6.4-6.4-9.6-8.8zM323.2-60c92 0 172 48 218.4 120 26.4 40.8 41.6 89.6 41.6 141.6 0 127.2-89.6 232.8-208.8 256.8-16.8 3.2-33.6 4.8-51.2 4.8-144 0-260-117.6-260-261.6 0-144.8 116-261.6 260-261.6zM323.2 428.8c13.6 0 27.2-1.6 40-3.2 105.6-19.2 185.6-112 185.6-223.2 0-47.2-14.4-90.4-38.4-127.2-40.8-60.8-109.6-100-187.2-100-124.8 0-225.6 101.6-225.6 227.2 0 124.8 100.8 226.4 225.6 226.4zM287.2 8l12.8 151.2-115.2-96.8c28.8-28.8 64-47.2 102.4-54.4zM183.2 338.4c-27.2-28.8-45.6-64.8-52.8-104l150.4-13.6-97.6 117.6zM432.8 38.4l-97.6 117.6-13.6-151.2c52 0 89.6 19.2 111.2 33.6zM461.6 340.8c-28.8 28.8-65.6 48-104.8 54.4v-3.2l-4.8-43.2-9.6-108c5.6 4.8 12.8 11.2 20.8 17.6 29.6 24.8 69.6 58.4 98.4 82.4z"  horiz-adv-x="1024" />

    
    <glyph glyph-name="liangyoufushi" unicode="&#58881;" d="M492.373 369.6c-1.707-6.4-3.093-12.48-3.627-17.707 0 0 1.173 6.613 3.627 17.707zM314.133 369.6c2.347-11.093 3.627-17.707 3.627-17.707-0.64 5.333-1.92 11.307-3.627 17.707zM584.64-10.88c-10.24 0-18.88 0.107-25.813 0.107-8.533 0.107-15.253 0.107-18.453 0-5.653-0.213-11.093 2.027-14.827 6.187-6.613 7.467-5.333 15.893-3.733 26.56 2.667 17.387 7.573 49.707-8.96 93.12-9.493 24.96-8.427 48.213-7.573 68.693 0.747 17.707 1.493 34.56-4.267 51.307-18.24 53.013-62.187 109.44-80.533 124.8-5.973 5.013-8.427 7.573-10.773 10.133-1.493 1.6-2.56 2.773-15.253 11.093-2.453 1.6-6.293 3.093-10.027 4.587-10.133 3.947-29.013 11.307-29.013 32.533 0.213 63.147 11.733 97.92 15.573 109.333l0.107 0.32c3.84 11.413 17.92 49.6 27.307 68.48 9.6 19.52 21.227 39.787 28.16 51.84 1.493 2.667 3.093 5.333 4.053 7.147 0.427 4.907 1.173 12.8 4.8 20.373 2.24 4.48 21.333 34.453 34.88 50.987 4.267 5.227 13.44 14.72 21.76 23.253h-6.187v47.787h13.227v26.133h13.227v39.040h140.48v-39.040h13.227v-26.133h13.227v-47.787h-2.453c11.733-10.24 25.813-22.613 34.24-30.72 29.12-27.947 37.013-42.987 40.96-54.080 2.56-7.467 3.84-15.787 3.947-25.493 34.347-20.48 53.973-62.613 56.107-67.413 3.84-8.747 13.867-31.573 20.8-73.173 5.12-30.827 8.32-60.587 8.213-113.6v-2.24c0-12.693 0.107-39.253-8.533-62.613-3.093-8.32-8.107-15.147-13.227-20.587 9.173-15.787 18.453-38.080 18.453-53.76v-170.987c0-23.573-8.32-44.16-22.72-56.427-20.16-17.28-60.267-23.573-72.747-24.427-69.12-4.587-122.773-5.333-157.653-5.333zM525.653 22.507c0.533 0 32.747 1.493 33.387 1.493 30.080-0.213 92.8-0.747 180.693 5.227 14.827 1.067 42.773 7.893 52.587 16.213 6.507 5.44 10.453 16.96 10.453 29.867v170.987c0 9.173-10.027 32.533-18.88 44.16l-0.213 0.32c-0.427 0.427-0.853 0.853-1.173 1.28l-12.48 14.933 16.213 10.773c6.4 4.267 11.627 10.133 13.44 15.040 6.507 17.387 6.4 38.827 6.293 50.347v2.453c0.107 50.56-2.88 78.72-7.68 107.84-6.187 37.333-14.933 57.28-18.24 64.747-5.653 12.693-19.84 36.373-38.613 49.387l-25.173-18.773 4.053 39.36c1.173 11.2 0.747 19.733-1.28 25.493-1.387 3.84-5.12 14.507-32.213 40.533-15.573 14.933-52.907 46.613-53.227 46.933l-36.267 30.72h33.813v17.28h-13.227v38.933h-70.827v-39.040h-13.227v-17.28h29.547l-30.187-29.76c-7.893-7.787-29.867-29.76-35.947-37.227-11.627-14.293-28.267-40.427-30.72-44.587-0.747-1.707-1.067-5.76-1.28-8-0.213-2.453-0.427-4.48-1.067-6.827l-0.107-0.32c-0.747-2.56-1.707-4.053-7.36-13.973-6.72-11.733-18.027-31.467-27.093-50.027-8.213-16.64-21.547-52.587-25.493-64.213l-0.107-0.32c-3.307-9.92-13.333-39.893-13.76-95.573 0.32-12.587-1.387-29.76 3.733-33.92 15.893-12.8 27.093-25.067 31.68-29.013 20.267-16.96 67.733-54.507 89.387-117.227 8-23.040-8.96-36.8-9.92-56.96-0.853-18.773 9.92-43.093 16.853-61.44 17.6-45.973 6.507-78.827 3.627-99.84zM745.173 318.293l-8.64 5.867c-7.893 5.333-16.107 9.173-24.32 11.52l-2.667 0.747c-19.733 5.653-40.213 11.52-53.333 29.227-3.52 4.587-8.747 11.627-10.347 91.093-0.64 34.56-0.64 77.76 3.307 87.040 5.013 11.52 14.613 16.107 22.4 19.733 3.627 1.707 7.147 3.413 10.453 5.76 4.373 3.2 8.32 6.613 10.88 9.6l8.64 10.027 11.947-5.653c9.92-4.693 13.12-7.147 14.187-7.893 10.453-7.787 22.507-21.76 29.333-33.92 8-14.507 18.133-45.653 21.12-79.573 0.107-0.853 6.187-88.32 1.493-106.88-4.587-18.347-17.707-27.733-25.173-31.68l-9.28-5.013zM685.227 385.067c6.613-7.36 19.307-10.987 33.92-15.147l2.667-0.747c7.68-2.133 15.253-5.227 22.613-9.173 0.64 1.067 1.067 2.24 1.387 3.52 2.133 10.24-0.64 76.053-2.347 95.147-2.773 30.72-11.84 56.64-16.96 65.813-4.053 7.253-11.52 16.213-17.813 21.44-1.92-1.6-4.053-3.307-6.293-4.907-5.973-4.267-11.52-6.933-16-9.067-1.6-0.747-3.627-1.707-4.907-2.453-2.133-21.653-1.067-125.12 3.733-144.427zM586.56-49.92c-1.173 26.56-45.013 56.427-45.013 56.427l-0.427 2.453c36.373 117.867-1.6 167.893-1.6 167.893l26.133 8.64c8.96 2.88 10.133 11.84 10.133 11.84v79.787c-2.453 16.427-16.213 13.973-16.213 13.973-10.667-2.987-51.307-12.8-51.307-12.8-107.307 145.28-158.507 137.707-158.507 137.707-66.24 5.227-163.2-137.6-163.2-137.6l-50.133 12.053c-15.147 1.6-17.6-10.88-17.6-10.88l0.213-77.547c0-12.48 6.933-15.147 6.933-15.147 8.64-3.733 28.587-10.667 28.587-10.667-37.653-60.907-1.173-168.533-1.173-168.533-22.080-15.147-42.987-45.44-42.987-45.44-7.787-31.893 13.867-31.467 13.867-31.467 21.653 7.36 47.467 2.88 47.467 2.88 25.813-7.787 98.24-18.027 160.747-23.253 62.613-5.227 195.2 24 195.2 24 18.24 3.627 37.227-2.24 37.227-2.24 23.68-7.467 21.653 17.92 21.653 17.92zM344.853 392.64s44.693 10.667 140.693-121.92c0 0-138.027-23.68-276.587 0 0 0 83.52 118.293 135.893 121.92zM351.573 327.787c0-10.251 8.309-18.56 18.56-18.56s18.56 8.309 18.56 18.56c0 10.251-8.309 18.56-18.56 18.56-10.251 0-18.56-8.309-18.56-18.56zM400.32 290.667c0-10.251 8.309-18.56 18.56-18.56s18.56 8.309 18.56 18.56c0 10.251-8.309 18.56-18.56 18.56-10.251 0-18.56-8.309-18.56-18.56z"  horiz-adv-x="1024" />

    
    <glyph glyph-name="huopinmingcheng" unicode="&#59116;" d="M943.326 616.761l-436.525 217.542-436.525-216.844v-435.094l436.525-217.542 436.525 217.542v434.398zM506.804 781.697l328.463-164.229-125.133-62.564-329.878 163.509 126.553 63.278zM322.668 687.845l334.143-160.676-150.721-72.513-328.463 162.094 145.051 71.093zM124.309 562.021v0 27.723l354.768-176.322v-380.359l-354.768 176.322v352.628zM888.571 535.719v-326.336l-354.768-176.322v380.359l354.768 176.322v-54.036z"  horiz-adv-x="1024" />

    
    <glyph glyph-name="hezuoyewu" unicode="&#59102;" d="M901.558 428.282c-10.62 12.093-20.297 23.124-29.987 34.156q-105.268 119.687-210.624 239.375c-37.279 42.359-82.482 72.068-137.686 85.575-59.696 14.61-115.594 4.169-168.544-25.717-54.425-30.71-99.214-72.615-139.278-119.908-12.667-14.95-24.303-30.815-35.983-46.573-11.959-16.201-30.815-20.9-48.118-11.503-17.779 9.722-25.142 28.278-17.779 46.779 3.806 9.607 9.764 17.662 17.312 23.853 42.783 54.432 99.519 111.874 167.111 157.873 37.117 25.23 76.489 45.792 120.556 56.266 29.751 7.069 59.668 6.953 89.846 2.946 60.388-7.938 113.575-32.404 160.679-70.7 25.111-20.4 45.749-45.1 66.988-69.226q138.128-156.759 276.286-313.772c13.066-14.832 14.478-31.786 2.725-44.305-5.618-5.629-13.028-9.469-21.299-10.591q-169.661-46.512-344.082-93.337c-84.338-22.726-168.823-44.923-252.956-68.387-28.207-7.866-46.837 10.223-51.846 27.985-7.172 25.363 6.039 50.447 30.239 56.986q106.992 28.942 214.027 57.649 152.71 41.167 305.391 82.394c1.857 0.471 3.667 1.105 7.026 2.18zM123.749 329.184c2.783-3.298 4.891-5.891 7.114-8.426q116.726-132.678 233.424-265.343c37.648-42.714 83.351-72.511 139.205-85.738 59.27-14.051 114.637-3.358 167.070 26.262 53.746 30.357 98.066 71.7 137.775 118.304 13.021 15.289 25.038 31.505 36.97 47.663s30.667 21.254 48.003 12.093c18.145-9.573 25.555-28.56 18.087-47.397-3.455-8.829-8.879-16.24-15.759-21.959-47.355-59.771-108.407-121.133-182.449-168.47-32.404-20.708-66.678-37.323-104.192-46.645-30.637-7.615-61.553-7.572-92.675-3.476-54.498 7.172-103.175 27.985-147.29 60.388-28.131 20.621-51.124 46.47-73.984 72.482q-141.206 160.634-282.636 321.091c-12.667 14.389-13.994 30.385-2.547 43.054 5.069 5.378 11.865 9.079 19.498 10.215q107.967 30.023 220.303 60.249 189.855 51.45 379.743 102.838c23.877 6.45 44.29-4.965 50.83-28.207 6.849-24.333-5.11-49.444-27.749-55.735-59.417-16.467-119.010-32.3-178.545-48.369l-342.287-92.366c-2.314-0.662-4.566-1.473-7.908-2.505z"  horiz-adv-x="1024" />

    
    <glyph glyph-name="helpeye" unicode="&#58888;" d="M1005.482 384.079c0-95.008-203.483-297.684-493.455-297.684-282.592 0-493.455 199.341-493.455 297.684 0 98.329 211.773 297.366 493.455 297.366 292.252-0.001 493.524-199.037 493.455-297.366zM512.461 627.145c-131.33 0-237.793-108.901-237.793-243.228 0-134.327 106.462-243.228 237.793-243.228 131.371 0 237.837 108.901 237.837 243.228-0.001 134.326-106.466 243.228-237.837 243.228zM512.027 539.2c-83.634 0-151.435-69.337-151.435-154.877 0-85.531 67.801-154.88 151.435-154.88s151.408 69.349 151.408 154.88c0 85.54-67.773 154.877-151.408 154.877z"  horiz-adv-x="1024" />

    
    <glyph glyph-name="tianjiatupian" unicode="&#58945;" d="M1000.4992 424.5504h-429.7216V855.4496a40.5504 40.5504 0 0 1-81.1008 0v-430.8992H57.6a40.5504 40.5504 0 0 1 0-81.1008h432.128v-430.8992a40.5504 40.5504 0 1 1 81.0496 0v430.8992h429.7216a40.5504 40.5504 0 1 1 0 81.1008"  horiz-adv-x="1075" />

    
    <glyph glyph-name="biyan" unicode="&#59139;" d="M1000.877 520.863c10.625 15.936 7.083 37.184-7.083 49.579-15.936 12.395-37.184 8.853-49.579-7.083-1.772-1.771-198.315-233.729-432.046-233.729-226.645 0-432.045 233.729-433.815 235.5-12.396 14.165-35.413 15.936-49.58 3.542-14.165-12.395-15.936-35.413-3.542-49.58 3.542-5.311 46.038-53.119 113.323-106.24l-90.305-93.846c-14.165-14.165-12.394-37.184 1.772-49.579 3.542-7.083 12.395-10.625 21.249-10.625 8.852 0 17.706 3.542 24.788 10.625l97.387 100.928c46.038-31.873 100.929-61.974 161.132-83.221l-37.185-125.718c-5.311-19.476 5.313-38.954 24.79-44.267h10.623c15.936 0 30.102 10.625 33.643 26.56l37.184 125.718c28.331-5.312 58.433-8.854 88.534-8.854s60.204 3.542 88.535 8.854l37.183-123.949c3.543-15.936 19.478-26.559 33.644-26.559 3.542 0 7.083 0 8.854 1.771 19.476 5.313 30.101 24.788 24.79 44.267l-37.185 123.949c60.205 21.249 115.094 51.35 161.132 83.221l95.617-99.157c7.083-7.083 15.936-10.625 24.788-10.625 8.853 0 17.708 3.542 24.788 10.623 14.165 14.166 14.165 35.413 1.772 49.58l-90.305 93.845c72.599 53.122 115.098 104.47 115.098 104.47z"  horiz-adv-x="1024" />

    
    <glyph glyph-name="shuxian" unicode="&#58919;" d="M501.96 886.546h16.493v-1006.624l-16.492 0.001-0.001 1006.623z"  horiz-adv-x="1024" />

    
    <glyph glyph-name="shouqi" unicode="&#58892;" d="M0 896v-1024h1023.992775V896H0z m950.846134-950.858175H73.137008V822.860583h877.709126v-877.718758zM182.8654 420.562484h658.281242v-73.144234H182.8654v73.144234z"  horiz-adv-x="1024" />

    
    <glyph glyph-name="rouqindanlei" unicode="&#58894;" d="M502.017686-63.364214c-256.004817 0-464.879624 35.60158-480.478043 80.701411h961.069275c-15.822389-45.097422-224.584008-80.701411-480.591232-80.701411zM779.49953-70.93825H239.002371v38.655277h540.49475v-38.655277h0.002409z m-183.782954 608.085494c-9.382653 0-67.251176 41.480188-6.894901 91.437516 11.41524 13.223857 27.466416 36.509501 7.571627 75.162371 103.758269-45.208203-22.266943-99.575089-0.676726-166.599887z m-153.149652 108.052229c-7.345249 0-52.784647 32.5527-5.425852 71.773923 8.929897 10.396538 21.474619 28.595898 5.991797 59.000414 81.378137-35.4908-17.520226-78.216068-0.565945-130.774337z m83.863481-58.884816c-14.016181 0-90.081656 61.485757-0.110781 135.971401 16.841091 19.666002 30.630894 54.817234 1.129482 112.461788 154.84508-67.477554-33.231834-148.518532-1.018701-248.433189M121.343518 393.377836c34.700884 36.959849 48.601468 58.321279 85.110969 88.838984 111.445494 90.873979 268.099191 90.650009 375.024346-94.151646 4.859906-42.951646-92.795786-45.663368-71.545136-119.017121 3.390856-11.754807 36.959849-40.690273 51.768354-16.614713 103.418702 224.584008 234.982954 57.870931 342.245268 292.401128 8.25317 21.250649 18.649708 39.78476 32.779078 34.134939 25.318231-10.172568 22.83048-47.585174 35.488391-51.994732 12.657912-4.40715 59.000414-21.587808 47.587583-36.84666-4.973095-6.668523-24.643913-17.744196-46.005344-28.595898-197.12-100.367413 8.25317-291.04286-171.914957-420.914093H194.926058c-87.256745 54.480075-154.734299 125.572455-183.554167 222.209445-8.47714 28.36952 5.989389 105.453697 27.240038 126.138401 17.857385 17.404628 63.747131-25.54461 82.736406 4.40715l-0.004817 0.004816z"  horiz-adv-x="1024" />

    
    <glyph glyph-name="weibiaoti1" unicode="&#58895;" d="M291.128 517.966c-27.782-10.841-40.27-20.881-46.881-52.001-8.927-41.539 12.355-107.676 48.929-103.981 51.601 5.098 59.258 102.467 30.586 139.642-7.658 9.951-18.365 12.755-32.634 16.339zM515.384 517.966c-27.381-10.685-40.136-20.391-46.881-50.977-9.171-41.806 12.221-108.7 48.929-105.005 52.513 5.209 62.33 113.553 25.511 144.762-7.658 6.5-16.072 8.147-27.559 11.219zM919.864 582.433c-78.358 137.105-214.817 226.927-433.241 223.254-15.293-1.402-30.586-2.694-45.88-4.096-27.136-5.743-54.406-11.598-81.564-17.341-130.093-40.76-228.352-121.433-276.257-244.647-26.268-67.272-18.365-167.068 7.123-227.328 52.38-123.859 158.386-201.75 298.696-237.546 58.88-15.048 159.922-23.062 222.253-4.074 44.967-43.453 137.483-83.723 220.182-87.663-14.648 27.514-29.184 55.051-43.832 82.566-7.123 20.391-14.269 40.782-21.393 61.173 19.745 13.624 39.357 27.136 59.103 40.782 52.113 40.381 90.357 97.48 116.224 164.129 30.72 79.382 12.867 190.909-21.415 250.791zM710.901 154.268c1.514-37.198 16.295-70.456 27.514-99.907-26.379 8.281-51.245 21.415-72.37 35.706-7.791 6.099-15.694 12.221-23.463 18.343-5.098 5.476-10.195 10.819-15.293 16.295-12.6-2.671-25.11-5.476-37.732-8.147-35.417-7.012-84.858-10.819-123.347-4.096-96.456 16.963-166.177 39.891-229.376 87.663-47.772 36.196-90.223 89.466-110.102 152.91-41.539 132.274 30.586 252.193 103.981 308.892 43.453 33.525 93.651 59.77 152.91 77.468 22.038 4.452 44.21 8.815 66.271 13.245 11.598 1.024 23.062 2.048 34.66 3.072 187.815 0.512 313.589-65.469 384.334-181.448 13-21.148 22.906-46.637 30.564-72.37 50.243-167.958-87.886-299.587-188.55-347.626z"  horiz-adv-x="1024" />

    
    <glyph glyph-name="quanbushangpin" unicode="&#59088;" d="M664.715 431.565h187.184c57.582 0 104.696 47.164 104.696 104.812V723.774c0 57.646-47.113 104.812-104.696 104.812H664.715c-57.583 0-104.695-47.165-104.695-104.812v-187.397c0-57.648 47.112-104.812 104.695-104.812z m189.635-98.043H667.167c-57.582 0-104.697-47.167-104.697-104.815v-187.396c0-57.652 47.114-104.812 104.697-104.812H854.35c57.582 0 104.696 47.159 104.696 104.812V228.707c0 57.648-47.113 104.815-104.696 104.815z m67.683-292.21c0-17.985-7.071-34.967-19.914-47.823-12.841-12.856-29.805-19.937-47.768-19.937H667.167c-17.964 0-34.928 7.08-47.769 19.937-12.842 12.856-19.913 29.838-19.913 47.823V228.707c0 17.985 7.071 34.965 19.913 47.823 12.842 12.853 29.806 19.937 47.769 19.937H854.35c17.964 0 34.928-7.083 47.768-19.937 12.842-12.858 19.914-29.838 19.914-47.823v-187.395zM359.286 336.435H172.102c-57.582 0-104.695-47.167-104.695-104.816v-187.396c0-57.646 47.113-104.815 104.695-104.815h187.184c57.583 0 104.696 47.168 104.696 104.815V231.619c0 57.65-47.113 104.816-104.696 104.816zM169.65 434.474h187.184c57.584 0 104.696 47.167 104.696 104.813V726.685c0 57.646-47.112 104.815-104.696 104.815H169.65c-57.582 0-104.696-47.168-104.696-104.815v-187.399c0-57.646 47.112-104.812 104.696-104.812z"  horiz-adv-x="1024" />

    
    <glyph glyph-name="tishi1" unicode="&#58912;" d="M511.999206 896C229.22879 896 0.000229 666.769393 0.000229 384c0-282.770416 229.229584-512 511.998977-512S1023.998182 101.229584 1023.998182 384C1023.998182 666.769393 794.768598 896 511.999206 896z m0-835.153471c-33.931058 0-61.438772 27.505667-61.438772 61.439795 0 33.933105 27.507714 61.439795 61.438772 61.439795 33.934128 0 61.439795-27.507714 61.439795-61.439795 0-33.934128-27.506691-61.439795-61.439795-61.439795z m61.439795 236.6261c0-25.450852-27.507714-46.08087-61.439795-46.080869-33.931058 0-61.438772 20.631041-61.438772 46.080869v368.638772c0 25.448805 27.507714 46.079847 61.438772 46.079847 33.933105 0 61.439795-20.631041 61.439795-46.079847v-368.638772z"  horiz-adv-x="1024" />

    
    <glyph glyph-name="xuanze1" unicode="&#58925;" d="M505.684992 895.484928C229.508096 895.484928 0.515072 666.491904 0.515072 377.684992c0-276.176896 228.993024-505.170944 505.170944-505.170944 288.806912 0 517.799936 228.993024 517.799936 505.170944C1023.484928 666.491904 794.491904 895.484928 505.684992 895.484928zM512-55.274496c-242.604032 0-439.274496 196.66944-439.274496 439.274496S269.395968 823.274496 512 823.274496 951.274496 626.604032 951.274496 384 754.604032-55.274496 512-55.274496z"  horiz-adv-x="1024" />

    
    <glyph glyph-name="weibiaoti-5" unicode="&#58926;" d="M512 384m-512 0a512 512 0 1 1 1024 0 512 512 0 1 1-1024 0Z"  horiz-adv-x="1024" />

    
    <glyph glyph-name="spec-par-5" unicode="&#58913;" d="M803.886 23.575h-586.446l-7.694 6.148c-109.57 87.559-172.412 216.643-172.412 354.153 0 41.065 5.636 81.868 16.754 121.278l5.774 20.469h901.6l5.774-20.469c10.636-36.315 16.754-78.034 16.754-121.181 0-0.034-0-0.068-0-0.102 0-137.503-62.843-266.587-172.413-354.148l-7.691-6.148zM237.314 79.775h546.694c91.5 76.652 143.783 186.943 143.783 304.101 0 28.838-3.179 57.524-9.462 85.549h-815.33c-6.014-25.685-9.462-55.178-9.462-85.476 0-0.026 0-0.051 0-0.077-0-117.154 52.281-227.445 143.783-304.097zM713.793-33.003h-406.265c-14.698 0-28.779-12.925-28.099-28.099 0.682-15.225 12.347-28.099 28.099-28.099h406.262c14.698 0 28.779 12.925 28.099 28.099-0.682 15.225-12.346 28.099-28.099 28.099zM896.768 469.424h-772.214l2.832 30.682c8.777 95.13 52.534 183.211 123.211 248.019 71.13 65.226 163.489 101.145 260.064 101.145s188.932-35.921 260.064-101.145c70.674-64.806 114.433-152.889 123.211-248.019l2.833-30.682zM187.603 525.623h646.114c-28.752 154.465-162.595 267.446-323.057 267.446-160.464 0-294.308-112.982-323.058-267.446z"  horiz-adv-x="1024" />

    
    <glyph glyph-name="spec-par-9" unicode="&#58914;" d="M917.674 340.891l-368.127-366.994c-45.18-45.043-118.433-45.043-163.613 0l-286.32 285.439c-45.176 45.040-45.176 118.070 0 163.109l368.13 366.994c28.12 29.415 33.51 42.31 63.015 42.31h373.947c29.502 0 53.42-23.842 53.42-53.254v-372.805c0-29.412-16.757-41.174-40.452-64.799zM140.52 300.117l286.317-285.443c22.592-22.518 59.216-22.518 81.807 0l40.468 40.343-367.26 367.861-41.332-41.21c-22.591-22.52-22.591-59.034 0-81.551zM904.706 751.858c0 14.71-11.96 26.636-26.711 26.636h-320.527c-14.752 0-35.696-16.74-48.823-29.83l-285.88-285.002 367.678-367.44 286.326 285.447c14.406 14.362 27.938 35.947 27.938 50.652v319.537zM610.902 483.614c-45.183 45.040-45.183 118.066 0 163.109 45.176 45.042 118.433 45.042 163.61 0 45.182-45.043 45.182-118.068 0-163.11-45.177-45.042-118.435-45.042-163.61 0zM733.608 605.947c-22.588 22.516-59.212 22.516-81.806 0-22.591-22.527-22.591-59.040 0-81.559 22.594-22.515 59.218-22.515 81.806 0 22.592 22.52 22.592 59.032 0 81.559z"  horiz-adv-x="1024" />

    
    <glyph glyph-name="spec-par-4" unicode="&#58915;" d="M938.25 591.5l-72.5 195c-10 24.999-40 47.499-67.5 47.499h-575c-27.5 0-57.5-20.001-67.5-47.499l-69.999-195c-7.5-7.5-12.5-20.001-12.5-32.5v-175c0-27.5 22.5-50 50-50v-350c0-27.5 22.5-50 50-50h675c27.5 0 50 22.5 50 50v350c27.5 0 50 22.5 50 50v175c2.499 12.5-2.499 22.5-10 32.5zM225.75 784h575l72.5-200.001h-720l72.5 200.001zM850.75-16h-675v350h675v-350zM900.75 384h-775v125c0 10 2.499 17.5 7.5 24.999h762.501c5-7.5 7.5-15 7.5-24.999v-125z"  horiz-adv-x="1024" />

    
    <glyph glyph-name="spec-par-6" unicode="&#58916;" d="M856.139 716.103c-2.754 13.251-14.333 23.066-28.205 23.066-3.097 0-6.080-0.489-8.875-1.395-66.81-21.106-139.511-8.889-215.878 36.367-59.11 35.031-98.103 77.59-98.782 78.335-6.595 7.301-16.084 10.432-25.155 9.233-9.010 1.136-18.413-1.99-24.972-9.227-0.387-0.428-39.451-43.178-98.786-78.341-76.366-45.255-149.067-57.472-216.082-36.31-2.591 0.848-5.572 1.336-8.668 1.336-13.872 0-25.451-9.814-28.174-22.878-1.128-5.59-26.492-134.29 4.574-289.059 18.384-91.595 52.824-173.251 102.364-242.701 62.043-86.98 147.732-154.566 254.687-200.879 3.727-1.613 12.821-3.817 14.074-3.817 5.276 0 12.494 2.204 16.219 3.817 106.956 46.313 192.646 113.899 254.687 200.879 49.54 69.451 83.98 151.107 102.364 242.701 31.066 154.769 5.703 283.469 4.609 288.872zM796.648 437.947c-38.008-186.632-144.1-320.088-315.382-396.796-171.28 76.708-277.372 210.164-315.382 396.796-20.701 101.643-14.743 192.978-9.397 238.159 36.557-6.765 74.44-5.999 113.034 2.322 39.236 8.461 79.174 24.724 118.703 48.336 41.975 25.073 74.408 52.992 93.040 70.638 18.633-17.647 51.067-45.564 93.040-70.638 39.529-23.613 79.467-39.876 118.703-48.336 38.594-8.321 76.477-9.088 113.033-2.321 5.348-45.195 11.303-136.525-9.396-238.16zM452.227 292.013c-7.372 0-14.737 2.813-20.352 8.43l-99.724 99.724c-11.239 11.24-11.239 29.463 0 40.702s29.463 11.24 40.702 0l79.673-79.672 164.292 159.503c11.407 11.072 29.626 10.802 40.698-0.603s10.804-29.625-0.602-40.697l-184.641-179.257c-5.163-5.030-12.225-8.132-20.012-8.132-0.012 0-0.025 0-0.037 0z"  horiz-adv-x="1024" />

    
    <glyph glyph-name="spec-par-1" unicode="&#58917;" d="M388.293 424.070h-293.207c-15.265 0-27.35-12.085-27.35-27.35s12.721-27.349 27.35-27.349h293.207c15.265 0 27.35 12.085 27.35 27.35 0.635 14.628-12.085 27.349-27.35 27.349zM261.088 305.769h-166.002c-15.265 0-27.35-12.085-27.35-27.35s12.721-27.348 27.35-27.348h166.002c15.265 0 27.35 12.084 27.35 27.349 0.635 15.264-12.085 27.349-27.35 27.349zM767.364 278.419c0 1.909 0 3.817-0.636 5.725 0 0.636-0.636 1.908-0.636 2.544s-0.636 1.908-0.636 2.544c-0.636 1.272-1.272 1.908-1.272 3.18-0.636 0.636-0.636 1.272-0.636 1.908-1.272 1.273-1.908 3.18-3.816 4.453l-95.404 94.131c-10.812 10.813-27.985 10.813-38.798 0-10.812-10.812-10.812-28.62 0-38.797l47.702-47.702h-162.822c-15.265 0-27.35-12.085-27.35-27.35s12.721-27.348 27.35-27.348h162.822l-47.702-47.702c-10.812-10.812-10.812-27.985 0-38.798 10.813-10.812 28.622-10.812 38.798 0l94.768 94.768c1.272 1.272 2.544 2.544 3.816 4.452 0.636 0.636 0.636 1.272 1.272 1.908 0.636 1.272 1.272 1.908 1.272 3.18 0.636 0.637 0.636 1.909 0.636 2.545 0 0.636 0.636 1.908 0.636 2.544 0.636 0 0.636 1.908 0.636 3.816zM177.133 188.104h-82.683c-15.265 0-27.35-12.72-27.35-27.349 0-15.264 12.085-27.349 27.35-27.349h82.683c15.265 0 27.349 12.085 27.349 27.35 0.636 14.628-12.084 27.348-27.35 27.348zM922.554 626.961l-75.687 145.65c-18.445 35.619-64.874 64.239-105.58 64.239h-464.298c-40.070 0-86.5-27.985-105.58-63.603l-75.687-142.47c-16.537-30.528-29.257-82.047-29.257-117.027v-22.26c0-15.265 12.084-27.35 27.349-27.35s27.349 12.085 27.349 27.35v22.26c0 1.908 0.636 5.088 0.636 7.632h772.77c0.636-3.816 0.636-7.632 0.636-10.812v-475.11c0-15.265-12.085-27.35-27.35-27.35h-718.706c-15.265 0-27.35 12.72-27.35 27.35v33.709c0 15.264-12.084 27.349-27.348 27.349s-27.35-12.085-27.35-27.35v-34.345c0-45.793 36.89-82.683 82.684-82.683h718.708c45.794 0 82.683 37.526 82.683 82.683v475.11c0 34.982-12.084 86.5-28.621 117.030zM133.884 576.716c3.18 10.812 6.996 20.988 10.812 27.985l75.687 142.47c9.54 17.808 36.253 34.345 56.606 34.345h464.934c20.353 0 47.066-16.537 56.606-34.346l75.687-145.65c3.816-6.996 6.996-15.9 10.177-25.44h-750.51z"  horiz-adv-x="1024" />

    
    <glyph glyph-name="spec-par-7" unicode="&#58920;" d="M346.639 603.516h10.883c16.355 0 22.675 23.699 22.675 40.053v130.721c0 16.355-8.163 34.553-24.489 34.553h-10.883c-16.355 0-23.582-18.198-23.582-34.553v-136.192c0-10.883 9.070-34.582 25.396-34.582zM696.203 603.516h10.884c16.354 0 23.58 23.699 23.58 40.053v130.721c0 16.355-6.319 34.553-22.673 34.553h-10.884c-16.355 0-24.488-18.198-24.488-34.553v-136.192c0-10.883 12.668-34.582 23.581-34.582zM851.471 749.89h-90.932v-57.87h90.932c32.68 0 59.918-32.125 59.918-64.805v-54.477h-768.146v54.477c0 32.68 27.238 64.804 59.919 64.804h89.117v57.87h-83.676c-65.39 0-121.71-68.198-121.71-128.116v-528.443c0-59.918 56.35-132.68 121.71-132.68h648.31c59.918 0 107.080 67.32 107.080 132.68v528.443c-5.411 59.917-47.133 128.117-112.521 128.117zM908.317 98.743c0-38.122-18.695-79.99-56.846-79.99h-642.838c-32.68 0-63.576 41.868-63.576 74.548v424.96h763.29v-419.518zM643.57 749.89h-234.38v-57.87h234.38v57.87z"  horiz-adv-x="1024" />

    
    <glyph glyph-name="spec-par-3" unicode="&#58921;" d="M511.69 832.185c-247.274 0-447.725-200.419-447.725-447.725 0-247.24 200.452-447.724 447.724-447.724s447.758 200.485 447.758 447.724c0 247.305-200.484 447.725-447.758 447.725zM511.69 1.7c-211.41 0-382.794 171.35-382.794 382.76 0 211.408 171.383 382.824 382.793 382.824 211.442 0 382.794-171.417 382.794-382.825s-171.353-382.759-382.794-382.759zM365.536 439.214c35.83 0 64.899 29.068 64.899 64.899 0 35.832-29.068 64.899-64.9 64.899s-64.898-29.067-64.898-64.9c0-35.83 29.068-64.898 64.899-64.898zM657.841 569.012c-35.831 0-64.899-29.067-64.899-64.9 0-35.83 29.068-64.898 64.9-64.898s64.898 29.068 64.898 64.899c0 35.832-29.068 64.899-64.899 64.899zM519.135 191.845c-69.906 0-129.896 41.944-156.428 102.030h-47.211c28.775-84.927 108.957-146.184 203.639-146.184 94.617 0 174.864 61.257 203.606 146.184h-47.211c-26.531-60.086-86.553-102.030-156.395-102.030z"  horiz-adv-x="1024" />

    
    <glyph glyph-name="spec-par-8" unicode="&#58923;" d="M512 223.294h-225c-17.775 0-32.119-14.4-32.119-32.063 0-17.775 14.344-32.231 32.119-32.231h225c17.719 0 32.063 14.4 32.063 32.063 0 17.775-14.344 32.231-32.063 32.231zM865.588 834h-707.175c-35.494 0-64.294-28.8-64.294-64.294v-771.413c0-35.494 28.8-64.294 64.294-64.294h707.175c35.494 0 64.35 28.8 64.35 64.294v771.413c0 35.494-28.856 64.294-64.35 64.294zM865.588 30.412c0-17.719-14.456-32.119-32.175-32.119h-642.825c-17.775 0-32.119 14.4-32.119 32.119v707.175c0 17.775 14.344 32.119 32.119 32.119h642.825c17.719 0 32.175-14.344 32.175-32.119v-707.175zM737 609h-450c-17.775 0-32.119-14.4-32.119-32.119 0-17.775 14.344-32.175 32.119-32.175h450c17.662 0 32.063 14.4 32.063 32.175 0 17.719-14.4 32.119-32.063 32.119zM737 416.119h-450c-17.775 0-32.119-14.4-32.119-32.119s14.344-32.063 32.119-32.063h450c17.662 0 32.063 14.344 32.063 32.063s-14.4 32.119-32.063 32.119z"  horiz-adv-x="1024" />

    
    <glyph glyph-name="spec-par-2" unicode="&#58924;" d="M823.488 54.72h62.336v62.336h-62.336v-62.336zM511.936-7.616h124.608v-62.272h-124.608v62.272zM999.552 727.552l-121.088 102.912c-5.393 4.614-12.451 7.422-20.165 7.422-4.293 0-8.383-0.87-12.103-2.443l-93.492-38.643-75.52-47.36c-8.736-5.606-14.441-15.269-14.441-26.264 0-1.141 0.061-2.268 0.181-3.377l9.396-91.574-87.168-59.84-102.72-12.16-82.176 44.672-51.072 99.456c-5.28 10.143-15.714 16.951-27.737 16.951-4.951 0-9.632-1.154-13.79-3.209l-110.538-53.935c-10.466-5.174-17.536-15.776-17.536-28.029 0-0.001 0-0.002 0-0.003l-0-40.896-36.928-35.968h-41.984c-8.409-0.014-16.039-3.336-21.662-8.732l-56.034-53.988c-5.895-5.669-9.557-13.623-9.557-22.432s3.662-16.763 9.547-22.422l49.162-47.37 28.224-133.696c1.472-7.040 5.376-13.376 11.008-17.856l102.272-81.92c5.306-4.263 12.123-6.844 19.542-6.848l112.618 0v-67.776c0-17.216 13.952-31.168 31.168-31.168h125.44l56.768-38.656c4.895-3.39 10.96-5.415 17.498-5.415 5.692 0 11.026 1.535 15.609 4.215l76.973 43.953 106.432 40.064c7.175 2.745 12.928 7.86 16.423 14.368l64.729 88.352c3.71 5.098 5.94 11.482 5.952 18.385l-0 90.607c-0.040 8.769-3.651 16.686-9.453 22.38l-39.059 37.972 49.536 32.64c6.028 3.999 10.521 9.895 12.658 16.825l32.846 64.647 87.936 61.184c8.081 5.726 13.296 15.035 13.312 25.563l-0 125.669c-0.008 9.5-4.265 18.004-10.973 23.715zM948.288 594.368l-81.088-56.512c-5.781-4.101-10.082-9.956-12.15-16.782l-32.394-63.73-75.136-49.28c-8.511-5.656-14.044-15.203-14.044-26.042 0-8.758 3.612-16.673 9.429-22.335l57.543-55.943v-67.392l-55.488-76.288-102.144-38.912-64.576-36.544-48.64 33.152c-4.888 3.444-10.967 5.504-17.526 5.504-0.026 0-0.052-0-0.078-0l-103.932 0v67.776c0 17.214-13.954 31.168-31.168 31.168 0 0 0 0 0 0l-132.864-0-85.056 68.096-27.84 132.224c-1.564 7.353-5.582 13.582-11.138 17.938l-30.526 29.678 28.608 22.848h37.312c8.473 0.016 16.154 3.389 21.788 8.859l55.396 53.989c5.757 5.697 9.328 13.594 9.344 22.326l-5.184 9.738 71.040 56.768 41.408-80.832c3.633-6.959 9.622-12.27 16.886-14.943l95.306-52.193c5.696-3.008 12.16-4.224 18.56-3.52l120.128 14.272c6.068 0.753 11.471 3.133 15.893 6.685l106.859 73.187c8.189 5.671 13.484 15.016 13.484 25.598 0 1.15-0.063 2.286-0.184 3.404l-9.332 90.742 54.464 34.56 71.296 29.056 95.68-81.408v-94.912h0.064zM574.208 420.992c-0.862 0.021-1.876 0.033-2.894 0.033-70.692 0-128-57.308-128-128 0-70.692 57.308-128 128-128 0.995 0 1.987 0.011 2.977 0.034 69.317 1.582 125.023 58.269 125.023 127.966 0 69.675-55.67 126.347-124.956 127.965zM574.208 203.392c-0 0-0 0-0 0-49.485 0-89.6 40.115-89.6 89.6 0 49.485 40.115 89.6 89.6 89.6 0 0 0 0 0 0 49.485-0 89.6-40.115 89.6-89.6 0-49.485-40.115-89.6-89.6-89.6zM535.808 288c0-0 0-0 0-0 0-21.208 17.192-38.4 38.4-38.4 21.208 0 38.4 17.192 38.4 38.4 0 0 0 0 0 0 0 0 0 0 0 0 0 21.208-17.192 38.4-38.4 38.4-21.208 0-38.4-17.192-38.4-38.4 0-0 0-0 0-0z"  horiz-adv-x="1024" />

    
    <glyph glyph-name="zuhelaixi" unicode="&#58927;" d="M511.963136 848.06144C256.203776 848.06144 48.128 639.985664 48.128 384.22528c0-255.761408 208.075776-463.835136 463.835136-463.835136 255.756288 0 463.835136 208.074752 463.835136 463.835136 0.001024 255.760384-208.077824 463.83616-463.835136 463.83616z m200.491008-244.191232c0.258048 0.172032 0.494592 0.365568 0.758784 0.53248 0.287744 0.183296 0.580608 0.342016 0.869376 0.519168 0.633856 0.403456 1.253376 0.817152 1.88928 1.220608 1.16224 0.731136 2.36544 1.33632 3.586048 1.885184 41.283584 21.624832 93.064192 8.218624 118.341632-31.858688 12.880896-20.4288 17.038336-44.642304 11.703296-68.190208-4.791296-21.177344-16.764928-39.514112-33.982464-52.36736-1.004544-0.84992-2.057216-1.667072-3.20512-2.393088-0.600064-0.379904-1.215488-0.736256-1.8176-1.110016-0.31744-0.206848-0.620544-0.422912-0.935936-0.62464-0.206848-0.130048-0.428032-0.216064-0.63488-0.340992-44.032-27.127808-93.612032-45.30688-133.203968-45.30688-27.229184 0-49.723392 8.580096-62.432256 28.734464-31.16032 49.404928 25.806848 121.959424 99.063808 169.299968z m-296.865792 57.148416c0 1.379328 0.134144 2.725888 0.32256 4.057088 3.739648 46.435328 42.69568 83.080192 90.079232 83.080192 47.377408 0 86.334464-36.644864 90.074112-83.080192 0.187392-1.3312 0.316416-2.67776 0.316416-4.057088 0-0.758784-0.018432-1.518592-0.023552-2.2784 0.00512-0.325632 0.023552-0.648192 0.023552-0.978944 0-0.304128-0.032768-0.596992-0.043008-0.899072-0.951296-87.22432-31.929344-174.135296-90.34752-174.135296-58.4192 0-89.402368 86.910976-90.353664 174.135296-0.01024 0.303104-0.048128 0.595968-0.048128 0.899072 0 0.325632 0.023552 0.653312 0.023552 0.978944-0.001024 0.760832-0.023552 1.519616-0.023552 2.2784z m-15.5648-411.424768c-17.27488-28.340224-45.257728-57.655296-79.019008-82.894848-0.211968-0.166912-0.408576-0.350208-0.62464-0.508928-0.183296-0.134144-0.370688-0.239616-0.55296-0.36864-0.693248-0.514048-1.375232-1.043456-2.076672-1.557504-0.845824-0.620544-1.750016-1.104896-2.637824-1.618944-14.468096-9.127936-30.973952-13.920256-47.927296-13.920256-4.652032 0-9.342976 0.355328-14.024704 1.086464-23.865344 3.69664-44.859392 16.462848-59.11552 35.948544-27.983872 38.245376-21.407744 91.328512 13.865984 121.76384 0.95744 0.937984 1.96608 1.836032 3.076096 2.648064 0.606208 0.443392 1.226752 0.8704 1.831936 1.307648 0.268288 0.201728 0.524288 0.416768 0.797696 0.615424 0.249856 0.182272 0.514048 0.330752 0.769024 0.504832 70.948864 50.732032 159.371264 77.048832 193.871872 29.90592 9.863168-13.478912 21.904384-43.466752-8.233984-92.911616z m14.041088 191.347712c-6.701056-14.457856-25.59488-37.938176-77.577216-37.938176-2.490368 0-5.062656 0.053248-7.709696 0.16896-33.184768 1.398784-72.419328 11.70944-110.886912 29.065216-0.211968 0.091136-0.433152 0.15872-0.648192 0.260096-0.15872 0.072704-0.304128 0.16896-0.462848 0.241664-0.830464 0.37376-1.661952 0.739328-2.489344 1.124352-1.369088 0.633856-2.637824 1.384448-3.85536 2.19648-18.528256 10.545152-32.635904 27.080704-40.061952 47.330304-8.315904 22.663168-7.30624 47.214592 2.844672 69.122048 10.146816 21.90848 28.224512 38.5536 50.8928 46.86848 20.378624 7.474176 42.272768 7.38816 62.406656-0.0768 1.26976-0.379904 2.528256-0.822272 3.764224-1.398784 0.687104-0.31744 1.359872-0.648192 2.04288-0.970752 0.303104-0.134144 0.610304-0.254976 0.913408-0.39424 0.274432-0.130048 0.519168-0.284672 0.78848-0.413696 78.749696-37.53472 144.589824-102.177792 120.0384-155.185152z m191.9488-327.776256c0-1.379328-0.135168-2.729984-0.32256-4.062208-3.744768-46.430208-42.696704-83.07712-90.079232-83.07712-47.378432 0-86.330368 36.645888-90.074112 83.07712-0.188416 1.3312-0.32256 2.68288-0.32256 4.062208 0 0.758784 0.024576 1.518592 0.024576 2.277376 0 0.32768-0.024576 0.649216-0.024576 0.980992 0 0.303104 0.037888 0.595968 0.048128 0.899072 0.95232 87.223296 31.929344 174.135296 90.348544 174.135296 58.418176 0 89.396224-86.912 90.353664-174.135296 0.008192-0.304128 0.048128-0.596992 0.048128-0.899072 0-0.32768-0.024576-0.653312-0.029696-0.980992 0.00512-0.758784 0.029696-1.517568 0.029696-2.277376z m162.537472 35.591168c-10.36288 0-20.840448 1.826816-31.00672 5.566464-1.316864 0.38912-2.619392 0.840704-3.903488 1.437696-0.70656 0.325632-1.40288 0.672768-2.110464 1.004544-0.277504 0.130048-0.562176 0.236544-0.840704 0.360448-0.269312 0.130048-0.519168 0.284672-0.78848 0.418816-78.75072 37.5296-144.594944 102.172672-120.037376 155.184128 24.56064 53.011456 116.447232 44.580864 195.995648 8.776704 0.273408-0.115712 0.55296-0.206848 0.822272-0.330752 0.292864-0.135168 0.572416-0.288768 0.86016-0.422912 0.69632-0.31744 1.40288-0.62464 2.100224-0.9472 1.258496-0.585728 2.427904-1.268736 3.557376-2.003968 40.547328-22.91712 57.423872-73.659392 37.510144-116.644864-15.270912-32.960512-48.018432-52.399104-82.158592-52.399104z m0 0M505.990144 539.947008c9.549824 4.109312 32.713728 44.649472 33.278976 118.341632-0.282624 18.121728-15.091712 32.781312-33.278976 32.781312-18.193408 0-33.002496-14.659584-33.28512-32.781312 0.561152-73.698304 23.724032-114.23232 33.28512-118.341632z m0 0M515.611648 234.242048c-9.555968-4.114432-32.718848-44.647424-33.28512-118.346752 0.287744-18.11968 15.097856-32.780288 33.28512-32.780288 18.187264 0 32.996352 14.659584 33.28512 32.780288-0.566272 73.698304-23.729152 114.231296-33.28512 118.346752z m0 0M783.181824 269.118464c-67.113984 30.473216-113.650688 26.498048-121.398272 19.557376-0.284672-10.400768 26.763264-48.454656 93.380608-79.941632 16.55808-7.359488 36.097024-0.096256 43.744256 16.413696 7.643136 16.49664 0.577536 36.082688-15.726592 43.97056z m0 0M268.758016 544.930816c-16.55808 7.364608-36.097024 0.091136-43.744256-16.41472-3.734528-8.07424-4.109312-17.12128-1.043456-25.474048 3.004416-8.189952 8.978432-14.741504 16.828416-18.520064 67.094528-30.45376 113.59744-26.473472 121.346048-19.533824 0.282624 10.402816-26.759168 48.45568-93.386752 79.942656z m0 0M779.644928 500.076544c7.281664 4.753408 12.357632 12.007424 14.27968 20.509696 1.96608 8.676352 0.433152 17.601536-4.310016 25.12384-9.704448 15.38048-29.988864 20.081664-45.47072 10.671104-62.042112-39.793664-83.980288-81.014784-82.354176-91.291648 8.582144-5.88288 55.226368-3.849216 117.855232 34.987008z m0 0M246.892544 265.67168c-6.926336-5.243904-11.483136-12.823552-12.814336-21.4272-1.359872-8.795136 0.78336-17.59232 6.03648-24.777728 5.249024-7.176192 12.987392-11.876352 21.779456-13.241344 8.61696-1.34144 17.229824 0.715776 24.32512 5.743616 59.144192 43.974656 78.183424 86.602752 75.85792 96.745472-8.96512 5.291008-55.36768 0.037888-115.18464-43.042816z m0 0"  horiz-adv-x="1024" />

    
    <glyph glyph-name="error" unicode="&#58929;" d="M512 891.392A509.888 509.888 0 0 1 2.304 381.696 509.888 509.888 0 0 1 512-128a509.888 509.888 0 0 1 509.696 509.696A509.888 509.888 0 0 1 512 891.392z m228.352-690.112a33.92 33.92 0 0 0 0-47.872 33.92 33.92 0 0 0-23.936-10.176 34.112 34.112 0 0 0-23.936 10.176L512 333.76l-180.416-180.416a33.92 33.92 0 0 0-23.936-10.176 34.112 34.112 0 0 0-23.936 58.048l180.416 180.416-180.48 180.48a34.048 34.048 0 0 0 0 47.936 33.92 33.92 0 0 0 47.872 0L512 429.632l180.416 180.416a33.92 33.92 0 0 0 47.872-47.872l-180.352-180.48 180.416-180.416z m0 0"  horiz-adv-x="1024" />

    
    <glyph glyph-name="success" unicode="&#58930;" d="M512 892.224a508.224 508.224 0 1 1 0-1016.448A508.224 508.224 0 0 1 512 892.224z m306.112-366.08l-351.68-359.296a34.88 34.88 0 0 0-54.016-5.12l-174.72 177.408a36.288 36.288 0 0 0 0 50.688 34.88 34.88 0 0 0 49.92 0l149.184-151.488 331.392 338.56a34.88 34.88 0 0 0 49.92 0 36.352 36.352 0 0 0 0-50.752z m0 0"  horiz-adv-x="1024" />

    
    <glyph glyph-name="info" unicode="&#58931;" d="M517.191358 890.304367A509.151223 509.151223 0 1 1 517.255354-127.93408399999998 509.151223 509.151223 0 0 1 517.191358 890.240371z m0-788.493241c-28.478167 0-51.644675 21.374624-51.644675 47.612935 0 3.391782 2.815819 6.079609 6.271596 6.079608h90.810154c3.455778 0 6.271596-2.751823 6.271596-6.079608 0-26.238311-23.230505-47.612935-51.708671-47.612935z m226.929391 96.3138a6.2076 6.2076 0 0 0-6.271596-6.143605H296.533563a6.2076 6.2076 0 0 0-6.271596 6.143605v44.541132c0 26.814274 32.445911 48.188898 75.195159 50.428754a133.75139 133.75139 0 0 0-7.871493 45.181091V462.043936c0 63.035942 43.197219 118.200391 107.96105 138.423089v12.479197c0 26.238311 23.166509 47.612935 51.644675 47.612935 28.478167 0 51.708671-21.374624 51.708671-47.612935v-12.479197c64.763831-20.222698 107.96105-75.323151 107.96105-138.423089v-123.768033c0-15.23102-2.623831-30.398043-7.871493-45.117095 42.749248-2.239856 75.195159-23.61448 75.195159-50.428754v-44.605128z m0 0"  horiz-adv-x="1029" />

    
    <glyph glyph-name="warn" unicode="&#58928;" d="M512 891.008a509.504 509.504 0 1 1 0-1019.072A509.504 509.504 0 0 1 512 891.008zM446.72 634.304a65.28 65.28 0 0 0 130.56 0v-316.608a65.28 65.28 0 1 0-130.56 0V634.304zM512 63.42399999999998a66.368 66.368 0 1 0 0 132.672 66.368 66.368 0 0 0 0-132.672z m0 0"  horiz-adv-x="1024" />

    


  </font>
</defs>
</svg>
